<?xml version="1.0" encoding="utf-8" standalone="no"?>
<!DOCTYPE svg PUBLIC "-//W3C//DTD SVG 1.1//EN"
  "http://www.w3.org/Graphics/SVG/1.1/DTD/svg11.dtd">
<svg height="504pt" version="1.1" viewBox="0 0 1152 504" width="1152pt" xmlns="http://www.w3.org/2000/svg" xmlns:xlink="http://www.w3.org/1999/xlink">
 <metadata>
  <rdf:RDF xmlns:cc="http://creativecommons.org/ns#" xmlns:dc="http://purl.org/dc/elements/1.1/" xmlns:rdf="http://www.w3.org/1999/02/22-rdf-syntax-ns#">
   <cc:Work>
    <dc:type rdf:resource="http://purl.org/dc/dcmitype/StillImage"/>
    <dc:date>2022-04-01T15:08:47.500896</dc:date>
    <dc:format>image/svg+xml</dc:format>
    <dc:creator>
     <cc:Agent>
      <dc:title>Matplotlib v3.4.3, https://matplotlib.org/</dc:title>
     </cc:Agent>
    </dc:creator>
   </cc:Work>
  </rdf:RDF>
 </metadata>
 <defs>
  <style type="text/css">*{stroke-linecap:butt;stroke-linejoin:round;}</style>
 </defs>
 <g id="figure_1">
  <g id="patch_1">
   <path d="M 0 504 
L 1152 504 
L 1152 0 
L 0 0 
z
" style="fill:none;"/>
  </g>
  <g id="axes_1">
   <g id="patch_2">
    <path d="M 57 453 
L 1132 453 
L 1132 36 
L 57 36 
z
" style="fill:#ffffff;"/>
   </g>
   <g id="matplotlib.axis_1">
    <g id="xtick_1">
     <g id="line2d_1">
      <defs>
       <path d="M 0 0 
L 0 3.5 
" id="mef9d4f6ffa" style="stroke:#000000;stroke-width:0.8;"/>
      </defs>
      <g>
       <use style="stroke:#000000;stroke-width:0.8;" x="95.992195" xlink:href="#mef9d4f6ffa" y="453"/>
      </g>
     </g>
     <g id="text_1">
      <!-- 0.0 -->
      <g transform="translate(88.040632 467.598438)scale(0.1 -0.1)">
       <defs>
        <path d="M 2034 4250 
Q 1547 4250 1301 3770 
Q 1056 3291 1056 2328 
Q 1056 1369 1301 889 
Q 1547 409 2034 409 
Q 2525 409 2770 889 
Q 3016 1369 3016 2328 
Q 3016 3291 2770 3770 
Q 2525 4250 2034 4250 
z
M 2034 4750 
Q 2819 4750 3233 4129 
Q 3647 3509 3647 2328 
Q 3647 1150 3233 529 
Q 2819 -91 2034 -91 
Q 1250 -91 836 529 
Q 422 1150 422 2328 
Q 422 3509 836 4129 
Q 1250 4750 2034 4750 
z
" id="DejaVuSans-30" transform="scale(0.015625)"/>
        <path d="M 684 794 
L 1344 794 
L 1344 0 
L 684 0 
L 684 794 
z
" id="DejaVuSans-2e" transform="scale(0.015625)"/>
       </defs>
       <use xlink:href="#DejaVuSans-30"/>
       <use x="63.623047" xlink:href="#DejaVuSans-2e"/>
       <use x="95.410156" xlink:href="#DejaVuSans-30"/>
      </g>
     </g>
    </g>
    <g id="xtick_2">
     <g id="line2d_2">
      <g>
       <use style="stroke:#000000;stroke-width:0.8;" x="293.421028" xlink:href="#mef9d4f6ffa" y="453"/>
      </g>
     </g>
     <g id="text_2">
      <!-- 0.2 -->
      <g transform="translate(285.469466 467.598438)scale(0.1 -0.1)">
       <defs>
        <path d="M 1228 531 
L 3431 531 
L 3431 0 
L 469 0 
L 469 531 
Q 828 903 1448 1529 
Q 2069 2156 2228 2338 
Q 2531 2678 2651 2914 
Q 2772 3150 2772 3378 
Q 2772 3750 2511 3984 
Q 2250 4219 1831 4219 
Q 1534 4219 1204 4116 
Q 875 4013 500 3803 
L 500 4441 
Q 881 4594 1212 4672 
Q 1544 4750 1819 4750 
Q 2544 4750 2975 4387 
Q 3406 4025 3406 3419 
Q 3406 3131 3298 2873 
Q 3191 2616 2906 2266 
Q 2828 2175 2409 1742 
Q 1991 1309 1228 531 
z
" id="DejaVuSans-32" transform="scale(0.015625)"/>
       </defs>
       <use xlink:href="#DejaVuSans-30"/>
       <use x="63.623047" xlink:href="#DejaVuSans-2e"/>
       <use x="95.410156" xlink:href="#DejaVuSans-32"/>
      </g>
     </g>
    </g>
    <g id="xtick_3">
     <g id="line2d_3">
      <g>
       <use style="stroke:#000000;stroke-width:0.8;" x="490.849862" xlink:href="#mef9d4f6ffa" y="453"/>
      </g>
     </g>
     <g id="text_3">
      <!-- 0.4 -->
      <g transform="translate(482.8983 467.598438)scale(0.1 -0.1)">
       <defs>
        <path d="M 2419 4116 
L 825 1625 
L 2419 1625 
L 2419 4116 
z
M 2253 4666 
L 3047 4666 
L 3047 1625 
L 3713 1625 
L 3713 1100 
L 3047 1100 
L 3047 0 
L 2419 0 
L 2419 1100 
L 313 1100 
L 313 1709 
L 2253 4666 
z
" id="DejaVuSans-34" transform="scale(0.015625)"/>
       </defs>
       <use xlink:href="#DejaVuSans-30"/>
       <use x="63.623047" xlink:href="#DejaVuSans-2e"/>
       <use x="95.410156" xlink:href="#DejaVuSans-34"/>
      </g>
     </g>
    </g>
    <g id="xtick_4">
     <g id="line2d_4">
      <g>
       <use style="stroke:#000000;stroke-width:0.8;" x="688.278696" xlink:href="#mef9d4f6ffa" y="453"/>
      </g>
     </g>
     <g id="text_4">
      <!-- 0.6 -->
      <g transform="translate(680.327134 467.598438)scale(0.1 -0.1)">
       <defs>
        <path d="M 2113 2584 
Q 1688 2584 1439 2293 
Q 1191 2003 1191 1497 
Q 1191 994 1439 701 
Q 1688 409 2113 409 
Q 2538 409 2786 701 
Q 3034 994 3034 1497 
Q 3034 2003 2786 2293 
Q 2538 2584 2113 2584 
z
M 3366 4563 
L 3366 3988 
Q 3128 4100 2886 4159 
Q 2644 4219 2406 4219 
Q 1781 4219 1451 3797 
Q 1122 3375 1075 2522 
Q 1259 2794 1537 2939 
Q 1816 3084 2150 3084 
Q 2853 3084 3261 2657 
Q 3669 2231 3669 1497 
Q 3669 778 3244 343 
Q 2819 -91 2113 -91 
Q 1303 -91 875 529 
Q 447 1150 447 2328 
Q 447 3434 972 4092 
Q 1497 4750 2381 4750 
Q 2619 4750 2861 4703 
Q 3103 4656 3366 4563 
z
" id="DejaVuSans-36" transform="scale(0.015625)"/>
       </defs>
       <use xlink:href="#DejaVuSans-30"/>
       <use x="63.623047" xlink:href="#DejaVuSans-2e"/>
       <use x="95.410156" xlink:href="#DejaVuSans-36"/>
      </g>
     </g>
    </g>
    <g id="xtick_5">
     <g id="line2d_5">
      <g>
       <use style="stroke:#000000;stroke-width:0.8;" x="885.70753" xlink:href="#mef9d4f6ffa" y="453"/>
      </g>
     </g>
     <g id="text_5">
      <!-- 0.8 -->
      <g transform="translate(877.755967 467.598438)scale(0.1 -0.1)">
       <defs>
        <path d="M 2034 2216 
Q 1584 2216 1326 1975 
Q 1069 1734 1069 1313 
Q 1069 891 1326 650 
Q 1584 409 2034 409 
Q 2484 409 2743 651 
Q 3003 894 3003 1313 
Q 3003 1734 2745 1975 
Q 2488 2216 2034 2216 
z
M 1403 2484 
Q 997 2584 770 2862 
Q 544 3141 544 3541 
Q 544 4100 942 4425 
Q 1341 4750 2034 4750 
Q 2731 4750 3128 4425 
Q 3525 4100 3525 3541 
Q 3525 3141 3298 2862 
Q 3072 2584 2669 2484 
Q 3125 2378 3379 2068 
Q 3634 1759 3634 1313 
Q 3634 634 3220 271 
Q 2806 -91 2034 -91 
Q 1263 -91 848 271 
Q 434 634 434 1313 
Q 434 1759 690 2068 
Q 947 2378 1403 2484 
z
M 1172 3481 
Q 1172 3119 1398 2916 
Q 1625 2713 2034 2713 
Q 2441 2713 2670 2916 
Q 2900 3119 2900 3481 
Q 2900 3844 2670 4047 
Q 2441 4250 2034 4250 
Q 1625 4250 1398 4047 
Q 1172 3844 1172 3481 
z
" id="DejaVuSans-38" transform="scale(0.015625)"/>
       </defs>
       <use xlink:href="#DejaVuSans-30"/>
       <use x="63.623047" xlink:href="#DejaVuSans-2e"/>
       <use x="95.410156" xlink:href="#DejaVuSans-38"/>
      </g>
     </g>
    </g>
    <g id="xtick_6">
     <g id="line2d_6">
      <g>
       <use style="stroke:#000000;stroke-width:0.8;" x="1083.136364" xlink:href="#mef9d4f6ffa" y="453"/>
      </g>
     </g>
     <g id="text_6">
      <!-- 1.0 -->
      <g transform="translate(1075.184801 467.598438)scale(0.1 -0.1)">
       <defs>
        <path d="M 794 531 
L 1825 531 
L 1825 4091 
L 703 3866 
L 703 4441 
L 1819 4666 
L 2450 4666 
L 2450 531 
L 3481 531 
L 3481 0 
L 794 0 
L 794 531 
z
" id="DejaVuSans-31" transform="scale(0.015625)"/>
       </defs>
       <use xlink:href="#DejaVuSans-31"/>
       <use x="63.623047" xlink:href="#DejaVuSans-2e"/>
       <use x="95.410156" xlink:href="#DejaVuSans-30"/>
      </g>
     </g>
    </g>
    <g id="text_7">
     <!-- Ratio of drawing completion -->
     <g transform="translate(524.067969 481.276563)scale(0.1 -0.1)">
      <defs>
       <path d="M 2841 2188 
Q 3044 2119 3236 1894 
Q 3428 1669 3622 1275 
L 4263 0 
L 3584 0 
L 2988 1197 
Q 2756 1666 2539 1819 
Q 2322 1972 1947 1972 
L 1259 1972 
L 1259 0 
L 628 0 
L 628 4666 
L 2053 4666 
Q 2853 4666 3247 4331 
Q 3641 3997 3641 3322 
Q 3641 2881 3436 2590 
Q 3231 2300 2841 2188 
z
M 1259 4147 
L 1259 2491 
L 2053 2491 
Q 2509 2491 2742 2702 
Q 2975 2913 2975 3322 
Q 2975 3731 2742 3939 
Q 2509 4147 2053 4147 
L 1259 4147 
z
" id="DejaVuSans-52" transform="scale(0.015625)"/>
       <path d="M 2194 1759 
Q 1497 1759 1228 1600 
Q 959 1441 959 1056 
Q 959 750 1161 570 
Q 1363 391 1709 391 
Q 2188 391 2477 730 
Q 2766 1069 2766 1631 
L 2766 1759 
L 2194 1759 
z
M 3341 1997 
L 3341 0 
L 2766 0 
L 2766 531 
Q 2569 213 2275 61 
Q 1981 -91 1556 -91 
Q 1019 -91 701 211 
Q 384 513 384 1019 
Q 384 1609 779 1909 
Q 1175 2209 1959 2209 
L 2766 2209 
L 2766 2266 
Q 2766 2663 2505 2880 
Q 2244 3097 1772 3097 
Q 1472 3097 1187 3025 
Q 903 2953 641 2809 
L 641 3341 
Q 956 3463 1253 3523 
Q 1550 3584 1831 3584 
Q 2591 3584 2966 3190 
Q 3341 2797 3341 1997 
z
" id="DejaVuSans-61" transform="scale(0.015625)"/>
       <path d="M 1172 4494 
L 1172 3500 
L 2356 3500 
L 2356 3053 
L 1172 3053 
L 1172 1153 
Q 1172 725 1289 603 
Q 1406 481 1766 481 
L 2356 481 
L 2356 0 
L 1766 0 
Q 1100 0 847 248 
Q 594 497 594 1153 
L 594 3053 
L 172 3053 
L 172 3500 
L 594 3500 
L 594 4494 
L 1172 4494 
z
" id="DejaVuSans-74" transform="scale(0.015625)"/>
       <path d="M 603 3500 
L 1178 3500 
L 1178 0 
L 603 0 
L 603 3500 
z
M 603 4863 
L 1178 4863 
L 1178 4134 
L 603 4134 
L 603 4863 
z
" id="DejaVuSans-69" transform="scale(0.015625)"/>
       <path d="M 1959 3097 
Q 1497 3097 1228 2736 
Q 959 2375 959 1747 
Q 959 1119 1226 758 
Q 1494 397 1959 397 
Q 2419 397 2687 759 
Q 2956 1122 2956 1747 
Q 2956 2369 2687 2733 
Q 2419 3097 1959 3097 
z
M 1959 3584 
Q 2709 3584 3137 3096 
Q 3566 2609 3566 1747 
Q 3566 888 3137 398 
Q 2709 -91 1959 -91 
Q 1206 -91 779 398 
Q 353 888 353 1747 
Q 353 2609 779 3096 
Q 1206 3584 1959 3584 
z
" id="DejaVuSans-6f" transform="scale(0.015625)"/>
       <path id="DejaVuSans-20" transform="scale(0.015625)"/>
       <path d="M 2375 4863 
L 2375 4384 
L 1825 4384 
Q 1516 4384 1395 4259 
Q 1275 4134 1275 3809 
L 1275 3500 
L 2222 3500 
L 2222 3053 
L 1275 3053 
L 1275 0 
L 697 0 
L 697 3053 
L 147 3053 
L 147 3500 
L 697 3500 
L 697 3744 
Q 697 4328 969 4595 
Q 1241 4863 1831 4863 
L 2375 4863 
z
" id="DejaVuSans-66" transform="scale(0.015625)"/>
       <path d="M 2906 2969 
L 2906 4863 
L 3481 4863 
L 3481 0 
L 2906 0 
L 2906 525 
Q 2725 213 2448 61 
Q 2172 -91 1784 -91 
Q 1150 -91 751 415 
Q 353 922 353 1747 
Q 353 2572 751 3078 
Q 1150 3584 1784 3584 
Q 2172 3584 2448 3432 
Q 2725 3281 2906 2969 
z
M 947 1747 
Q 947 1113 1208 752 
Q 1469 391 1925 391 
Q 2381 391 2643 752 
Q 2906 1113 2906 1747 
Q 2906 2381 2643 2742 
Q 2381 3103 1925 3103 
Q 1469 3103 1208 2742 
Q 947 2381 947 1747 
z
" id="DejaVuSans-64" transform="scale(0.015625)"/>
       <path d="M 2631 2963 
Q 2534 3019 2420 3045 
Q 2306 3072 2169 3072 
Q 1681 3072 1420 2755 
Q 1159 2438 1159 1844 
L 1159 0 
L 581 0 
L 581 3500 
L 1159 3500 
L 1159 2956 
Q 1341 3275 1631 3429 
Q 1922 3584 2338 3584 
Q 2397 3584 2469 3576 
Q 2541 3569 2628 3553 
L 2631 2963 
z
" id="DejaVuSans-72" transform="scale(0.015625)"/>
       <path d="M 269 3500 
L 844 3500 
L 1563 769 
L 2278 3500 
L 2956 3500 
L 3675 769 
L 4391 3500 
L 4966 3500 
L 4050 0 
L 3372 0 
L 2619 2869 
L 1863 0 
L 1184 0 
L 269 3500 
z
" id="DejaVuSans-77" transform="scale(0.015625)"/>
       <path d="M 3513 2113 
L 3513 0 
L 2938 0 
L 2938 2094 
Q 2938 2591 2744 2837 
Q 2550 3084 2163 3084 
Q 1697 3084 1428 2787 
Q 1159 2491 1159 1978 
L 1159 0 
L 581 0 
L 581 3500 
L 1159 3500 
L 1159 2956 
Q 1366 3272 1645 3428 
Q 1925 3584 2291 3584 
Q 2894 3584 3203 3211 
Q 3513 2838 3513 2113 
z
" id="DejaVuSans-6e" transform="scale(0.015625)"/>
       <path d="M 2906 1791 
Q 2906 2416 2648 2759 
Q 2391 3103 1925 3103 
Q 1463 3103 1205 2759 
Q 947 2416 947 1791 
Q 947 1169 1205 825 
Q 1463 481 1925 481 
Q 2391 481 2648 825 
Q 2906 1169 2906 1791 
z
M 3481 434 
Q 3481 -459 3084 -895 
Q 2688 -1331 1869 -1331 
Q 1566 -1331 1297 -1286 
Q 1028 -1241 775 -1147 
L 775 -588 
Q 1028 -725 1275 -790 
Q 1522 -856 1778 -856 
Q 2344 -856 2625 -561 
Q 2906 -266 2906 331 
L 2906 616 
Q 2728 306 2450 153 
Q 2172 0 1784 0 
Q 1141 0 747 490 
Q 353 981 353 1791 
Q 353 2603 747 3093 
Q 1141 3584 1784 3584 
Q 2172 3584 2450 3431 
Q 2728 3278 2906 2969 
L 2906 3500 
L 3481 3500 
L 3481 434 
z
" id="DejaVuSans-67" transform="scale(0.015625)"/>
       <path d="M 3122 3366 
L 3122 2828 
Q 2878 2963 2633 3030 
Q 2388 3097 2138 3097 
Q 1578 3097 1268 2742 
Q 959 2388 959 1747 
Q 959 1106 1268 751 
Q 1578 397 2138 397 
Q 2388 397 2633 464 
Q 2878 531 3122 666 
L 3122 134 
Q 2881 22 2623 -34 
Q 2366 -91 2075 -91 
Q 1284 -91 818 406 
Q 353 903 353 1747 
Q 353 2603 823 3093 
Q 1294 3584 2113 3584 
Q 2378 3584 2631 3529 
Q 2884 3475 3122 3366 
z
" id="DejaVuSans-63" transform="scale(0.015625)"/>
       <path d="M 3328 2828 
Q 3544 3216 3844 3400 
Q 4144 3584 4550 3584 
Q 5097 3584 5394 3201 
Q 5691 2819 5691 2113 
L 5691 0 
L 5113 0 
L 5113 2094 
Q 5113 2597 4934 2840 
Q 4756 3084 4391 3084 
Q 3944 3084 3684 2787 
Q 3425 2491 3425 1978 
L 3425 0 
L 2847 0 
L 2847 2094 
Q 2847 2600 2669 2842 
Q 2491 3084 2119 3084 
Q 1678 3084 1418 2786 
Q 1159 2488 1159 1978 
L 1159 0 
L 581 0 
L 581 3500 
L 1159 3500 
L 1159 2956 
Q 1356 3278 1631 3431 
Q 1906 3584 2284 3584 
Q 2666 3584 2933 3390 
Q 3200 3197 3328 2828 
z
" id="DejaVuSans-6d" transform="scale(0.015625)"/>
       <path d="M 1159 525 
L 1159 -1331 
L 581 -1331 
L 581 3500 
L 1159 3500 
L 1159 2969 
Q 1341 3281 1617 3432 
Q 1894 3584 2278 3584 
Q 2916 3584 3314 3078 
Q 3713 2572 3713 1747 
Q 3713 922 3314 415 
Q 2916 -91 2278 -91 
Q 1894 -91 1617 61 
Q 1341 213 1159 525 
z
M 3116 1747 
Q 3116 2381 2855 2742 
Q 2594 3103 2138 3103 
Q 1681 3103 1420 2742 
Q 1159 2381 1159 1747 
Q 1159 1113 1420 752 
Q 1681 391 2138 391 
Q 2594 391 2855 752 
Q 3116 1113 3116 1747 
z
" id="DejaVuSans-70" transform="scale(0.015625)"/>
       <path d="M 603 4863 
L 1178 4863 
L 1178 0 
L 603 0 
L 603 4863 
z
" id="DejaVuSans-6c" transform="scale(0.015625)"/>
       <path d="M 3597 1894 
L 3597 1613 
L 953 1613 
Q 991 1019 1311 708 
Q 1631 397 2203 397 
Q 2534 397 2845 478 
Q 3156 559 3463 722 
L 3463 178 
Q 3153 47 2828 -22 
Q 2503 -91 2169 -91 
Q 1331 -91 842 396 
Q 353 884 353 1716 
Q 353 2575 817 3079 
Q 1281 3584 2069 3584 
Q 2775 3584 3186 3129 
Q 3597 2675 3597 1894 
z
M 3022 2063 
Q 3016 2534 2758 2815 
Q 2500 3097 2075 3097 
Q 1594 3097 1305 2825 
Q 1016 2553 972 2059 
L 3022 2063 
z
" id="DejaVuSans-65" transform="scale(0.015625)"/>
      </defs>
      <use xlink:href="#DejaVuSans-52"/>
      <use x="67.232422" xlink:href="#DejaVuSans-61"/>
      <use x="128.511719" xlink:href="#DejaVuSans-74"/>
      <use x="167.720703" xlink:href="#DejaVuSans-69"/>
      <use x="195.503906" xlink:href="#DejaVuSans-6f"/>
      <use x="256.685547" xlink:href="#DejaVuSans-20"/>
      <use x="288.472656" xlink:href="#DejaVuSans-6f"/>
      <use x="349.654297" xlink:href="#DejaVuSans-66"/>
      <use x="384.859375" xlink:href="#DejaVuSans-20"/>
      <use x="416.646484" xlink:href="#DejaVuSans-64"/>
      <use x="480.123047" xlink:href="#DejaVuSans-72"/>
      <use x="521.236328" xlink:href="#DejaVuSans-61"/>
      <use x="582.515625" xlink:href="#DejaVuSans-77"/>
      <use x="664.302734" xlink:href="#DejaVuSans-69"/>
      <use x="692.085938" xlink:href="#DejaVuSans-6e"/>
      <use x="755.464844" xlink:href="#DejaVuSans-67"/>
      <use x="818.941406" xlink:href="#DejaVuSans-20"/>
      <use x="850.728516" xlink:href="#DejaVuSans-63"/>
      <use x="905.708984" xlink:href="#DejaVuSans-6f"/>
      <use x="966.890625" xlink:href="#DejaVuSans-6d"/>
      <use x="1064.302734" xlink:href="#DejaVuSans-70"/>
      <use x="1127.779297" xlink:href="#DejaVuSans-6c"/>
      <use x="1155.5625" xlink:href="#DejaVuSans-65"/>
      <use x="1217.085938" xlink:href="#DejaVuSans-74"/>
      <use x="1256.294922" xlink:href="#DejaVuSans-69"/>
      <use x="1284.078125" xlink:href="#DejaVuSans-6f"/>
      <use x="1345.259766" xlink:href="#DejaVuSans-6e"/>
     </g>
    </g>
   </g>
   <g id="matplotlib.axis_2">
    <g id="ytick_1">
     <g id="line2d_7">
      <defs>
       <path d="M 0 0 
L -3.5 0 
" id="m32b0dbf761" style="stroke:#000000;stroke-width:0.8;"/>
      </defs>
      <g>
       <use style="stroke:#000000;stroke-width:0.8;" x="57" xlink:href="#m32b0dbf761" y="434.045455"/>
      </g>
     </g>
     <g id="text_8">
      <!-- 0.0 -->
      <g transform="translate(34.096875 437.844673)scale(0.1 -0.1)">
       <use xlink:href="#DejaVuSans-30"/>
       <use x="63.623047" xlink:href="#DejaVuSans-2e"/>
       <use x="95.410156" xlink:href="#DejaVuSans-30"/>
      </g>
     </g>
    </g>
    <g id="ytick_2">
     <g id="line2d_8">
      <g>
       <use style="stroke:#000000;stroke-width:0.8;" x="57" xlink:href="#m32b0dbf761" y="358.227273"/>
      </g>
     </g>
     <g id="text_9">
      <!-- 0.2 -->
      <g transform="translate(34.096875 362.026491)scale(0.1 -0.1)">
       <use xlink:href="#DejaVuSans-30"/>
       <use x="63.623047" xlink:href="#DejaVuSans-2e"/>
       <use x="95.410156" xlink:href="#DejaVuSans-32"/>
      </g>
     </g>
    </g>
    <g id="ytick_3">
     <g id="line2d_9">
      <g>
       <use style="stroke:#000000;stroke-width:0.8;" x="57" xlink:href="#m32b0dbf761" y="282.409091"/>
      </g>
     </g>
     <g id="text_10">
      <!-- 0.4 -->
      <g transform="translate(34.096875 286.20831)scale(0.1 -0.1)">
       <use xlink:href="#DejaVuSans-30"/>
       <use x="63.623047" xlink:href="#DejaVuSans-2e"/>
       <use x="95.410156" xlink:href="#DejaVuSans-34"/>
      </g>
     </g>
    </g>
    <g id="ytick_4">
     <g id="line2d_10">
      <g>
       <use style="stroke:#000000;stroke-width:0.8;" x="57" xlink:href="#m32b0dbf761" y="206.590909"/>
      </g>
     </g>
     <g id="text_11">
      <!-- 0.6 -->
      <g transform="translate(34.096875 210.390128)scale(0.1 -0.1)">
       <use xlink:href="#DejaVuSans-30"/>
       <use x="63.623047" xlink:href="#DejaVuSans-2e"/>
       <use x="95.410156" xlink:href="#DejaVuSans-36"/>
      </g>
     </g>
    </g>
    <g id="ytick_5">
     <g id="line2d_11">
      <g>
       <use style="stroke:#000000;stroke-width:0.8;" x="57" xlink:href="#m32b0dbf761" y="130.772727"/>
      </g>
     </g>
     <g id="text_12">
      <!-- 0.8 -->
      <g transform="translate(34.096875 134.571946)scale(0.1 -0.1)">
       <use xlink:href="#DejaVuSans-30"/>
       <use x="63.623047" xlink:href="#DejaVuSans-2e"/>
       <use x="95.410156" xlink:href="#DejaVuSans-38"/>
      </g>
     </g>
    </g>
    <g id="ytick_6">
     <g id="line2d_12">
      <g>
       <use style="stroke:#000000;stroke-width:0.8;" x="57" xlink:href="#m32b0dbf761" y="54.954545"/>
      </g>
     </g>
     <g id="text_13">
      <!-- 1.0 -->
      <g transform="translate(34.096875 58.753764)scale(0.1 -0.1)">
       <use xlink:href="#DejaVuSans-31"/>
       <use x="63.623047" xlink:href="#DejaVuSans-2e"/>
       <use x="95.410156" xlink:href="#DejaVuSans-30"/>
      </g>
     </g>
    </g>
    <g id="text_14">
     <!-- Ratio of correct predictions -->
     <g transform="translate(28.017188 312.114844)rotate(-90)scale(0.1 -0.1)">
      <defs>
       <path d="M 2834 3397 
L 2834 2853 
Q 2591 2978 2328 3040 
Q 2066 3103 1784 3103 
Q 1356 3103 1142 2972 
Q 928 2841 928 2578 
Q 928 2378 1081 2264 
Q 1234 2150 1697 2047 
L 1894 2003 
Q 2506 1872 2764 1633 
Q 3022 1394 3022 966 
Q 3022 478 2636 193 
Q 2250 -91 1575 -91 
Q 1294 -91 989 -36 
Q 684 19 347 128 
L 347 722 
Q 666 556 975 473 
Q 1284 391 1588 391 
Q 1994 391 2212 530 
Q 2431 669 2431 922 
Q 2431 1156 2273 1281 
Q 2116 1406 1581 1522 
L 1381 1569 
Q 847 1681 609 1914 
Q 372 2147 372 2553 
Q 372 3047 722 3315 
Q 1072 3584 1716 3584 
Q 2034 3584 2315 3537 
Q 2597 3491 2834 3397 
z
" id="DejaVuSans-73" transform="scale(0.015625)"/>
      </defs>
      <use xlink:href="#DejaVuSans-52"/>
      <use x="67.232422" xlink:href="#DejaVuSans-61"/>
      <use x="128.511719" xlink:href="#DejaVuSans-74"/>
      <use x="167.720703" xlink:href="#DejaVuSans-69"/>
      <use x="195.503906" xlink:href="#DejaVuSans-6f"/>
      <use x="256.685547" xlink:href="#DejaVuSans-20"/>
      <use x="288.472656" xlink:href="#DejaVuSans-6f"/>
      <use x="349.654297" xlink:href="#DejaVuSans-66"/>
      <use x="384.859375" xlink:href="#DejaVuSans-20"/>
      <use x="416.646484" xlink:href="#DejaVuSans-63"/>
      <use x="471.626953" xlink:href="#DejaVuSans-6f"/>
      <use x="532.808594" xlink:href="#DejaVuSans-72"/>
      <use x="572.171875" xlink:href="#DejaVuSans-72"/>
      <use x="611.035156" xlink:href="#DejaVuSans-65"/>
      <use x="672.558594" xlink:href="#DejaVuSans-63"/>
      <use x="727.539062" xlink:href="#DejaVuSans-74"/>
      <use x="766.748047" xlink:href="#DejaVuSans-20"/>
      <use x="798.535156" xlink:href="#DejaVuSans-70"/>
      <use x="862.011719" xlink:href="#DejaVuSans-72"/>
      <use x="900.875" xlink:href="#DejaVuSans-65"/>
      <use x="962.398438" xlink:href="#DejaVuSans-64"/>
      <use x="1025.875" xlink:href="#DejaVuSans-69"/>
      <use x="1053.658203" xlink:href="#DejaVuSans-63"/>
      <use x="1108.638672" xlink:href="#DejaVuSans-74"/>
      <use x="1147.847656" xlink:href="#DejaVuSans-69"/>
      <use x="1175.630859" xlink:href="#DejaVuSans-6f"/>
      <use x="1236.8125" xlink:href="#DejaVuSans-6e"/>
      <use x="1300.191406" xlink:href="#DejaVuSans-73"/>
     </g>
    </g>
   </g>
   <g id="line2d_13">
    <path clip-path="url(#pc0e26593d9)" d="M 105.863636 434.045455 
L 115.735078 434.045455 
L 125.60652 434.045455 
L 135.477961 434.045455 
L 145.349403 434.045455 
L 155.220845 434.045455 
L 165.092287 434.045455 
L 174.963728 434.045455 
L 184.83517 434.045455 
L 194.706612 434.045455 
L 204.578053 434.045455 
L 214.449495 434.045455 
L 224.320937 434.045455 
L 234.192378 434.045455 
L 244.06382 434.045455 
L 253.935262 434.045455 
L 263.806703 434.045455 
L 273.678145 434.045455 
L 283.549587 434.045455 
L 293.421028 434.045455 
L 303.29247 434.045455 
L 313.163912 434.045455 
L 323.035354 434.045455 
L 332.906795 433.666364 
L 342.778237 433.666364 
L 352.649679 433.666364 
L 362.52112 433.287273 
L 372.392562 432.15 
L 382.264004 431.391818 
L 392.135445 429.875455 
L 402.006887 428.738182 
L 411.878329 426.463636 
L 421.74977 425.326364 
L 431.621212 423.81 
L 441.492654 421.535455 
L 451.364096 420.777273 
L 461.235537 418.881818 
L 471.106979 418.123636 
L 480.978421 417.365455 
L 490.849862 416.228182 
L 500.721304 415.090909 
L 510.592746 413.195455 
L 520.464187 412.058182 
L 530.335629 411.3 
L 540.207071 410.541818 
L 550.078512 410.920909 
L 559.949954 410.541818 
L 569.821396 410.162727 
L 579.692837 410.541818 
L 589.564279 410.162727 
L 599.435721 411.679091 
L 609.307163 411.679091 
L 619.178604 413.195455 
L 629.050046 412.437273 
L 638.921488 409.404545 
L 648.792929 406.750909 
L 658.664371 403.718182 
L 668.535813 399.169091 
L 678.407254 394.240909 
L 688.278696 385.521818 
L 698.150138 368.841818 
L 708.021579 357.848182 
L 717.893021 334.723636 
L 727.764463 315.39 
L 737.635904 275.964545 
L 747.507346 260.042727 
L 757.378788 224.787273 
L 767.25023 183.466364 
L 777.121671 173.989091 
L 786.993113 132.668182 
L 796.864555 108.785455 
L 806.735996 95.138182 
L 816.607438 77.320909 
L 826.47888 72.013636 
L 836.350321 67.843636 
L 846.221763 62.157273 
L 856.093205 57.608182 
L 865.964646 56.091818 
L 875.836088 55.712727 
L 885.70753 55.333636 
L 895.578972 54.954545 
L 905.450413 54.954545 
L 915.321855 54.954545 
L 925.193297 54.954545 
L 935.064738 54.954545 
L 944.93618 54.954545 
L 954.807622 54.954545 
L 964.679063 54.954545 
L 974.550505 54.954545 
L 984.421947 54.954545 
L 994.293388 54.954545 
L 1004.16483 54.954545 
L 1014.036272 54.954545 
L 1023.907713 54.954545 
L 1033.779155 54.954545 
L 1043.650597 54.954545 
L 1053.522039 54.954545 
L 1063.39348 54.954545 
L 1073.264922 54.954545 
L 1083.136364 54.954545 
" style="fill:none;stroke:#1f77b4;stroke-linecap:square;stroke-width:1.5;"/>
   </g>
   <g id="line2d_14">
    <path clip-path="url(#pc0e26593d9)" d="M 105.863636 54.954545 
L 115.735078 55.712727 
L 125.60652 63.294545 
L 135.477961 140.629091 
L 145.349403 272.173636 
L 155.220845 379.456364 
L 165.092287 398.410909 
L 174.963728 409.025455 
L 184.83517 414.711818 
L 194.706612 414.332727 
L 204.578053 412.437273 
L 214.449495 412.058182 
L 224.320937 409.404545 
L 234.192378 407.509091 
L 244.06382 398.79 
L 253.935262 395.757273 
L 263.806703 392.724545 
L 273.678145 385.900909 
L 283.549587 379.456364 
L 293.421028 373.011818 
L 303.29247 362.018182 
L 313.163912 346.854545 
L 323.035354 333.207273 
L 332.906795 316.148182 
L 342.778237 297.951818 
L 352.649679 256.251818 
L 362.52112 252.84 
L 372.392562 223.65 
L 382.264004 199.767273 
L 392.135445 177.78 
L 402.006887 162.995455 
L 411.878329 150.485455 
L 421.74977 126.981818 
L 431.621212 119.4 
L 441.492654 117.883636 
L 451.364096 94.000909 
L 461.235537 88.693636 
L 471.106979 86.419091 
L 480.978421 76.562727 
L 490.849862 68.601818 
L 500.721304 67.464545 
L 510.592746 65.569091 
L 520.464187 63.673636 
L 530.335629 62.915455 
L 540.207071 61.02 
L 550.078512 58.745455 
L 559.949954 57.608182 
L 569.821396 57.608182 
L 579.692837 57.229091 
L 589.564279 57.229091 
L 599.435721 56.470909 
L 609.307163 56.470909 
L 619.178604 56.091818 
L 629.050046 56.091818 
L 638.921488 56.091818 
L 648.792929 55.712727 
L 658.664371 55.712727 
L 668.535813 55.712727 
L 678.407254 55.712727 
L 688.278696 55.712727 
L 698.150138 55.712727 
L 708.021579 55.712727 
L 717.893021 55.333636 
L 727.764463 55.333636 
L 737.635904 54.954545 
L 747.507346 54.954545 
L 757.378788 54.954545 
L 767.25023 54.954545 
L 777.121671 54.954545 
L 786.993113 54.954545 
L 796.864555 54.954545 
L 806.735996 54.954545 
L 816.607438 54.954545 
L 826.47888 54.954545 
L 836.350321 54.954545 
L 846.221763 54.954545 
L 856.093205 54.954545 
L 865.964646 54.954545 
L 875.836088 54.954545 
L 885.70753 54.954545 
L 895.578972 54.954545 
L 905.450413 54.954545 
L 915.321855 54.954545 
L 925.193297 54.954545 
L 935.064738 54.954545 
L 944.93618 54.954545 
L 954.807622 54.954545 
L 964.679063 54.954545 
L 974.550505 54.954545 
L 984.421947 54.954545 
L 994.293388 54.954545 
L 1004.16483 54.954545 
L 1014.036272 54.954545 
L 1023.907713 54.954545 
L 1033.779155 54.954545 
L 1043.650597 54.954545 
L 1053.522039 54.954545 
L 1063.39348 54.954545 
L 1073.264922 54.954545 
L 1083.136364 54.954545 
" style="fill:none;stroke:#ff7f0e;stroke-linecap:square;stroke-width:1.5;"/>
   </g>
   <g id="line2d_15">
    <path clip-path="url(#pc0e26593d9)" d="M 105.863636 434.045455 
L 115.735078 434.045455 
L 125.60652 431.766351 
L 135.477961 427.208144 
L 145.349403 427.208144 
L 155.220845 427.208144 
L 165.092287 423.029787 
L 174.963728 415.812625 
L 184.83517 411.634269 
L 194.706612 407.076061 
L 204.578053 396.440244 
L 214.449495 388.843232 
L 224.320937 382.765622 
L 234.192378 375.928311 
L 244.06382 371.749954 
L 253.935262 368.331299 
L 263.806703 365.672345 
L 273.678145 364.912643 
L 283.549587 366.052195 
L 293.421028 366.052195 
L 303.29247 367.951448 
L 313.163912 372.889506 
L 323.035354 372.129805 
L 332.906795 374.408909 
L 342.778237 373.269357 
L 352.649679 369.850701 
L 362.52112 369.850701 
L 372.392562 369.470851 
L 382.264004 369.850701 
L 392.135445 374.788759 
L 402.006887 377.827564 
L 411.878329 377.827564 
L 421.74977 380.486518 
L 431.621212 383.905174 
L 441.492654 378.207415 
L 451.364096 372.889506 
L 461.235537 358.835034 
L 471.106979 332.625342 
L 480.978421 303.756695 
L 490.849862 280.965659 
L 500.721304 241.081345 
L 510.592746 215.251503 
L 520.464187 195.879122 
L 530.335629 178.785844 
L 540.207071 168.529878 
L 550.078512 166.250774 
L 559.949954 159.033613 
L 569.821396 162.072418 
L 579.692837 172.708235 
L 589.564279 172.708235 
L 599.435721 184.483604 
L 609.307163 184.863454 
L 619.178604 193.220168 
L 629.050046 192.840317 
L 638.921488 195.499271 
L 648.792929 197.398524 
L 658.664371 198.538076 
L 668.535813 197.398524 
L 678.407254 197.018674 
L 688.278696 197.018674 
L 698.150138 193.979869 
L 708.021579 193.220168 
L 717.893021 192.080616 
L 727.764463 189.801512 
L 737.635904 188.28211 
L 747.507346 187.142558 
L 757.378788 184.483604 
L 767.25023 179.925396 
L 777.121671 176.12689 
L 786.993113 163.59182 
L 796.864555 152.956003 
L 806.735996 144.599289 
L 816.607438 135.103024 
L 826.47888 125.226908 
L 836.350321 111.932137 
L 846.221763 101.676171 
L 856.093205 92.559756 
L 865.964646 84.962744 
L 875.836088 79.644835 
L 885.70753 72.807524 
L 895.578972 70.14857 
L 905.450413 66.350064 
L 915.321855 61.412006 
L 925.193297 59.512753 
L 935.064738 57.6135 
L 944.93618 56.853799 
L 954.807622 56.094097 
L 964.679063 56.094097 
L 974.550505 55.334396 
L 984.421947 55.334396 
L 994.293388 54.954545 
L 1004.16483 54.954545 
L 1014.036272 54.954545 
L 1023.907713 54.954545 
L 1033.779155 54.954545 
L 1043.650597 54.954545 
L 1053.522039 54.954545 
L 1063.39348 54.954545 
L 1073.264922 54.954545 
L 1083.136364 54.954545 
" style="fill:none;stroke:#2ca02c;stroke-linecap:square;stroke-width:1.5;"/>
   </g>
   <g id="line2d_16">
    <path clip-path="url(#pc0e26593d9)" d="M 105.863636 434.045455 
L 115.735078 434.045455 
L 125.60652 433.286514 
L 135.477961 433.286514 
L 145.349403 433.286514 
L 155.220845 433.286514 
L 165.092287 432.148103 
L 174.963728 428.732869 
L 184.83517 427.214988 
L 194.706612 424.558695 
L 204.578053 415.071936 
L 214.449495 400.272591 
L 224.320937 389.26795 
L 234.192378 374.089135 
L 244.06382 344.869915 
L 253.935262 333.106334 
L 263.806703 312.994403 
L 273.678145 301.610292 
L 283.549587 280.739421 
L 293.421028 266.319547 
L 303.29247 257.591728 
L 313.163912 241.653972 
L 323.035354 230.649331 
L 332.906795 215.470516 
L 342.778237 206.742697 
L 352.649679 200.291701 
L 362.52112 199.91223 
L 372.392562 195.358586 
L 382.264004 193.081764 
L 392.135445 196.496997 
L 402.006887 195.358586 
L 411.878329 190.425471 
L 421.74977 185.492356 
L 431.621212 173.349304 
L 441.492654 160.067841 
L 451.364096 149.0632 
L 461.235537 137.679088 
L 471.106979 125.915506 
L 480.978421 112.254573 
L 490.849862 104.665165 
L 500.721304 92.901583 
L 510.592746 87.968468 
L 520.464187 85.691646 
L 530.335629 84.173765 
L 540.207071 82.276413 
L 550.078512 82.655883 
L 559.949954 83.414824 
L 569.821396 82.276413 
L 579.692837 82.276413 
L 589.564279 82.276413 
L 599.435721 83.035354 
L 609.307163 83.035354 
L 619.178604 83.794294 
L 629.050046 83.794294 
L 638.921488 86.450587 
L 648.792929 86.450587 
L 658.664371 84.553235 
L 668.535813 83.035354 
L 678.407254 79.99959 
L 688.278696 76.963827 
L 698.150138 72.410183 
L 708.021579 70.892301 
L 717.893021 68.236009 
L 727.764463 65.579716 
L 737.635904 63.682364 
L 747.507346 62.543953 
L 757.378788 61.785012 
L 767.25023 60.267131 
L 777.121671 59.50819 
L 786.993113 59.12872 
L 796.864555 58.749249 
L 806.735996 57.990308 
L 816.607438 57.990308 
L 826.47888 57.990308 
L 836.350321 57.990308 
L 846.221763 57.990308 
L 856.093205 57.990308 
L 865.964646 57.990308 
L 875.836088 57.990308 
L 885.70753 57.610838 
L 895.578972 57.610838 
L 905.450413 56.851897 
L 915.321855 56.472427 
L 925.193297 56.092957 
L 935.064738 55.713486 
L 944.93618 55.334016 
L 954.807622 54.954545 
L 964.679063 54.954545 
L 974.550505 54.954545 
L 984.421947 54.954545 
L 994.293388 54.954545 
L 1004.16483 54.954545 
L 1014.036272 54.954545 
L 1023.907713 54.954545 
L 1033.779155 54.954545 
L 1043.650597 54.954545 
L 1053.522039 54.954545 
L 1063.39348 54.954545 
L 1073.264922 54.954545 
L 1083.136364 54.954545 
" style="fill:none;stroke:#d62728;stroke-linecap:square;stroke-width:1.5;"/>
   </g>
   <g id="line2d_17">
    <path clip-path="url(#pc0e26593d9)" d="M 105.863636 434.045455 
L 115.735078 434.045455 
L 125.60652 433.662921 
L 135.477961 433.662921 
L 145.349403 433.662921 
L 155.220845 433.662921 
L 165.092287 432.897853 
L 174.963728 432.897853 
L 184.83517 432.51532 
L 194.706612 431.367719 
L 204.578053 424.482112 
L 214.449495 417.979039 
L 224.320937 400.382488 
L 234.192378 380.490735 
L 244.06382 353.713375 
L 253.935262 324.258279 
L 263.806703 284.857307 
L 273.678145 252.724475 
L 283.549587 212.558435 
L 293.421028 179.660536 
L 303.29247 155.178378 
L 313.163912 132.608889 
L 323.035354 115.012338 
L 332.906795 102.77126 
L 342.778237 92.060316 
L 352.649679 87.087377 
L 362.52112 85.557242 
L 372.392562 83.644574 
L 382.264004 82.879506 
L 392.135445 82.114439 
L 402.006887 82.496973 
L 411.878329 85.174709 
L 421.74977 89.000046 
L 431.621212 91.295248 
L 441.492654 93.972984 
L 451.364096 96.268186 
L 461.235537 97.798321 
L 471.106979 97.798321 
L 480.978421 102.388726 
L 490.849862 103.153793 
L 500.721304 103.536327 
L 510.592746 100.858591 
L 520.464187 98.945922 
L 530.335629 93.207917 
L 540.207071 91.677782 
L 550.078512 85.174709 
L 559.949954 77.906568 
L 569.821396 72.168563 
L 579.692837 67.960692 
L 589.564279 67.578158 
L 599.435721 64.900422 
L 609.307163 62.222686 
L 619.178604 59.927484 
L 629.050046 58.014815 
L 638.921488 56.867214 
L 648.792929 56.48468 
L 658.664371 56.102147 
L 668.535813 56.48468 
L 678.407254 56.48468 
L 688.278696 56.48468 
L 698.150138 56.48468 
L 708.021579 56.867214 
L 717.893021 57.249748 
L 727.764463 57.632281 
L 737.635904 58.014815 
L 747.507346 59.927484 
L 757.378788 62.222686 
L 767.25023 63.752821 
L 777.121671 64.900422 
L 786.993113 67.578158 
L 796.864555 67.960692 
L 806.735996 68.343225 
L 816.607438 69.108293 
L 826.47888 69.490827 
L 836.350321 71.020961 
L 846.221763 71.403495 
L 856.093205 70.638428 
L 865.964646 67.578158 
L 875.836088 66.813091 
L 885.70753 63.370287 
L 895.578972 61.840152 
L 905.450413 61.840152 
L 915.321855 61.457619 
L 925.193297 60.310017 
L 935.064738 59.162416 
L 944.93618 58.397349 
L 954.807622 58.014815 
L 964.679063 57.249748 
L 974.550505 56.48468 
L 984.421947 56.102147 
L 994.293388 55.719613 
L 1004.16483 55.337079 
L 1014.036272 54.954545 
L 1023.907713 54.954545 
L 1033.779155 54.954545 
L 1043.650597 54.954545 
L 1053.522039 54.954545 
L 1063.39348 54.954545 
L 1073.264922 54.954545 
L 1083.136364 54.954545 
" style="fill:none;stroke:#9467bd;stroke-linecap:square;stroke-width:1.5;"/>
   </g>
   <g id="line2d_18">
    <path clip-path="url(#pc0e26593d9)" d="M 105.863636 434.045455 
L 115.735078 434.045455 
L 125.60652 433.666364 
L 135.477961 433.666364 
L 145.349403 433.666364 
L 155.220845 433.666364 
L 165.092287 433.666364 
L 174.963728 433.666364 
L 184.83517 433.666364 
L 194.706612 433.666364 
L 204.578053 433.666364 
L 214.449495 433.666364 
L 224.320937 433.666364 
L 234.192378 433.666364 
L 244.06382 433.666364 
L 253.935262 434.045455 
L 263.806703 434.045455 
L 273.678145 434.045455 
L 283.549587 434.045455 
L 293.421028 434.045455 
L 303.29247 433.666364 
L 313.163912 433.666364 
L 323.035354 433.666364 
L 332.906795 433.666364 
L 342.778237 433.287273 
L 352.649679 432.908182 
L 362.52112 432.529091 
L 372.392562 431.770909 
L 382.264004 432.15 
L 392.135445 432.908182 
L 402.006887 432.15 
L 411.878329 431.770909 
L 421.74977 432.15 
L 431.621212 432.529091 
L 441.492654 432.908182 
L 451.364096 432.15 
L 461.235537 431.391818 
L 471.106979 431.012727 
L 480.978421 431.391818 
L 490.849862 431.391818 
L 500.721304 430.254545 
L 510.592746 430.254545 
L 520.464187 425.326364 
L 530.335629 424.189091 
L 540.207071 420.777273 
L 550.078512 415.849091 
L 559.949954 408.267273 
L 569.821396 394.240909 
L 579.692837 385.142727 
L 589.564279 374.907273 
L 599.435721 340.030909 
L 609.307163 321.455455 
L 619.178604 293.781818 
L 629.050046 252.081818 
L 638.921488 223.270909 
L 648.792929 189.910909 
L 658.664371 164.132727 
L 668.535813 131.151818 
L 678.407254 103.857273 
L 688.278696 91.726364 
L 698.150138 75.425455 
L 708.021579 68.980909 
L 717.893021 65.948182 
L 727.764463 62.157273 
L 737.635904 59.882727 
L 747.507346 59.503636 
L 757.378788 59.124545 
L 767.25023 59.882727 
L 777.121671 61.02 
L 786.993113 61.399091 
L 796.864555 61.778182 
L 806.735996 62.157273 
L 816.607438 62.157273 
L 826.47888 61.02 
L 836.350321 60.640909 
L 846.221763 59.882727 
L 856.093205 59.503636 
L 865.964646 58.366364 
L 875.836088 58.366364 
L 885.70753 57.987273 
L 895.578972 57.608182 
L 905.450413 56.470909 
L 915.321855 56.091818 
L 925.193297 55.333636 
L 935.064738 54.954545 
L 944.93618 55.333636 
L 954.807622 55.333636 
L 964.679063 55.333636 
L 974.550505 55.333636 
L 984.421947 55.333636 
L 994.293388 55.333636 
L 1004.16483 54.954545 
L 1014.036272 54.954545 
L 1023.907713 54.954545 
L 1033.779155 54.954545 
L 1043.650597 54.954545 
L 1053.522039 54.954545 
L 1063.39348 54.954545 
L 1073.264922 54.954545 
L 1083.136364 54.954545 
" style="fill:none;stroke:#8c564b;stroke-linecap:square;stroke-width:1.5;"/>
   </g>
   <g id="line2d_19">
    <path clip-path="url(#pc0e26593d9)" d="M 105.863636 434.045455 
L 115.735078 434.045455 
L 125.60652 434.045455 
L 135.477961 433.287273 
L 145.349403 433.287273 
L 155.220845 433.287273 
L 165.092287 433.287273 
L 174.963728 433.287273 
L 184.83517 433.287273 
L 194.706612 433.287273 
L 204.578053 433.287273 
L 214.449495 432.908182 
L 224.320937 432.908182 
L 234.192378 433.287273 
L 244.06382 433.287273 
L 253.935262 433.287273 
L 263.806703 432.529091 
L 273.678145 432.15 
L 283.549587 432.15 
L 293.421028 432.529091 
L 303.29247 430.254545 
L 313.163912 427.98 
L 323.035354 423.051818 
L 332.906795 418.502727 
L 342.778237 409.783636 
L 352.649679 403.339091 
L 362.52112 398.031818 
L 372.392562 390.45 
L 382.264004 380.593636 
L 392.135445 376.044545 
L 402.006887 371.116364 
L 411.878329 364.292727 
L 421.74977 363.534545 
L 431.621212 349.129091 
L 441.492654 329.416364 
L 451.364096 316.906364 
L 461.235537 260.421818 
L 471.106979 239.950909 
L 480.978421 185.740909 
L 490.849862 168.681818 
L 500.721304 134.563636 
L 510.592746 104.994545 
L 520.464187 94.38 
L 530.335629 77.320909 
L 540.207071 72.392727 
L 550.078512 65.19 
L 559.949954 61.02 
L 569.821396 60.640909 
L 579.692837 58.745455 
L 589.564279 58.745455 
L 599.435721 56.470909 
L 609.307163 56.470909 
L 619.178604 55.712727 
L 629.050046 55.712727 
L 638.921488 55.333636 
L 648.792929 54.954545 
L 658.664371 54.954545 
L 668.535813 54.954545 
L 678.407254 54.954545 
L 688.278696 54.954545 
L 698.150138 54.954545 
L 708.021579 54.954545 
L 717.893021 54.954545 
L 727.764463 54.954545 
L 737.635904 54.954545 
L 747.507346 54.954545 
L 757.378788 54.954545 
L 767.25023 54.954545 
L 777.121671 54.954545 
L 786.993113 54.954545 
L 796.864555 54.954545 
L 806.735996 54.954545 
L 816.607438 54.954545 
L 826.47888 54.954545 
L 836.350321 54.954545 
L 846.221763 54.954545 
L 856.093205 54.954545 
L 865.964646 54.954545 
L 875.836088 54.954545 
L 885.70753 54.954545 
L 895.578972 54.954545 
L 905.450413 54.954545 
L 915.321855 54.954545 
L 925.193297 54.954545 
L 935.064738 54.954545 
L 944.93618 54.954545 
L 954.807622 54.954545 
L 964.679063 54.954545 
L 974.550505 54.954545 
L 984.421947 54.954545 
L 994.293388 54.954545 
L 1004.16483 54.954545 
L 1014.036272 54.954545 
L 1023.907713 54.954545 
L 1033.779155 54.954545 
L 1043.650597 54.954545 
L 1053.522039 54.954545 
L 1063.39348 54.954545 
L 1073.264922 54.954545 
L 1083.136364 54.954545 
" style="fill:none;stroke:#e377c2;stroke-linecap:square;stroke-width:1.5;"/>
   </g>
   <g id="line2d_20">
    <path clip-path="url(#pc0e26593d9)" d="M 105.863636 434.045455 
L 115.735078 434.045455 
L 125.60652 333.720386 
L 135.477961 67.207989 
L 145.349403 55.720386 
L 155.220845 54.954545 
L 165.092287 54.954545 
L 174.963728 54.954545 
L 184.83517 54.954545 
L 194.706612 54.954545 
L 204.578053 54.954545 
L 214.449495 54.954545 
L 224.320937 55.337466 
L 234.192378 55.337466 
L 244.06382 55.720386 
L 253.935262 55.720386 
L 263.806703 55.720386 
L 273.678145 56.103306 
L 283.549587 56.103306 
L 293.421028 56.103306 
L 303.29247 56.486226 
L 313.163912 56.486226 
L 323.035354 56.869146 
L 332.906795 56.869146 
L 342.778237 56.869146 
L 352.649679 56.869146 
L 362.52112 56.869146 
L 372.392562 56.869146 
L 382.264004 56.869146 
L 392.135445 56.869146 
L 402.006887 56.869146 
L 411.878329 56.869146 
L 421.74977 56.869146 
L 431.621212 56.869146 
L 441.492654 56.869146 
L 451.364096 56.869146 
L 461.235537 57.252066 
L 471.106979 57.252066 
L 480.978421 57.252066 
L 490.849862 57.634986 
L 500.721304 57.634986 
L 510.592746 57.634986 
L 520.464187 57.634986 
L 530.335629 57.252066 
L 540.207071 57.252066 
L 550.078512 56.869146 
L 559.949954 56.486226 
L 569.821396 56.486226 
L 579.692837 56.103306 
L 589.564279 56.103306 
L 599.435721 55.720386 
L 609.307163 55.720386 
L 619.178604 56.869146 
L 629.050046 56.869146 
L 638.921488 57.252066 
L 648.792929 57.252066 
L 658.664371 58.017906 
L 668.535813 58.783747 
L 678.407254 59.166667 
L 688.278696 61.847107 
L 698.150138 63.761708 
L 708.021579 64.910468 
L 717.893021 66.825069 
L 727.764463 66.825069 
L 737.635904 72.18595 
L 747.507346 72.951791 
L 757.378788 75.249311 
L 767.25023 78.312672 
L 777.121671 79.078512 
L 786.993113 74.866391 
L 796.864555 76.015152 
L 806.735996 76.780992 
L 816.607438 72.951791 
L 826.47888 72.568871 
L 836.350321 69.88843 
L 846.221763 67.973829 
L 856.093205 63.761708 
L 865.964646 63.378788 
L 875.836088 61.464187 
L 885.70753 60.315427 
L 895.578972 58.783747 
L 905.450413 58.783747 
L 915.321855 58.017906 
L 925.193297 57.252066 
L 935.064738 56.486226 
L 944.93618 56.486226 
L 954.807622 56.103306 
L 964.679063 56.103306 
L 974.550505 55.720386 
L 984.421947 55.720386 
L 994.293388 55.720386 
L 1004.16483 55.720386 
L 1014.036272 55.720386 
L 1023.907713 55.720386 
L 1033.779155 55.720386 
L 1043.650597 55.337466 
L 1053.522039 55.337466 
L 1063.39348 54.954545 
L 1073.264922 54.954545 
L 1083.136364 54.954545 
" style="fill:none;stroke:#7f7f7f;stroke-linecap:square;stroke-width:1.5;"/>
   </g>
   <g id="line2d_21">
    <path clip-path="url(#pc0e26593d9)" d="M 105.863636 434.045455 
L 115.735078 434.045455 
L 125.60652 434.045455 
L 135.477961 434.045455 
L 145.349403 434.045455 
L 155.220845 434.045455 
L 165.092287 434.045455 
L 174.963728 434.045455 
L 184.83517 434.045455 
L 194.706612 434.045455 
L 204.578053 434.045455 
L 214.449495 434.045455 
L 224.320937 434.045455 
L 234.192378 434.045455 
L 244.06382 434.045455 
L 253.935262 434.045455 
L 263.806703 434.045455 
L 273.678145 434.045455 
L 283.549587 434.045455 
L 293.421028 434.045455 
L 303.29247 434.045455 
L 313.163912 434.045455 
L 323.035354 434.045455 
L 332.906795 434.045455 
L 342.778237 434.045455 
L 352.649679 434.045455 
L 362.52112 434.045455 
L 372.392562 433.666364 
L 382.264004 433.287273 
L 392.135445 433.287273 
L 402.006887 432.908182 
L 411.878329 432.529091 
L 421.74977 431.770909 
L 431.621212 431.391818 
L 441.492654 431.391818 
L 451.364096 430.633636 
L 461.235537 429.496364 
L 471.106979 428.359091 
L 480.978421 424.947273 
L 490.849862 423.430909 
L 500.721304 420.777273 
L 510.592746 418.123636 
L 520.464187 416.607273 
L 530.335629 411.679091 
L 540.207071 411.3 
L 550.078512 410.920909 
L 559.949954 411.679091 
L 569.821396 412.058182 
L 579.692837 411.679091 
L 589.564279 411.679091 
L 599.435721 415.47 
L 609.307163 415.47 
L 619.178604 416.607273 
L 629.050046 418.123636 
L 638.921488 419.64 
L 648.792929 421.156364 
L 658.664371 421.914545 
L 668.535813 419.64 
L 678.407254 415.849091 
L 688.278696 413.195455 
L 698.150138 404.855455 
L 708.021579 399.169091 
L 717.893021 382.868182 
L 727.764463 369.6 
L 737.635904 353.678182 
L 747.507346 332.828182 
L 757.378788 310.461818 
L 767.25023 283.925455 
L 777.121671 255.493636 
L 786.993113 223.270909 
L 796.864555 189.152727 
L 806.735996 164.511818 
L 816.607438 141.008182 
L 826.47888 116.746364 
L 836.350321 100.445455 
L 846.221763 80.732727 
L 856.093205 73.909091 
L 865.964646 62.915455 
L 875.836088 59.124545 
L 885.70753 56.470909 
L 895.578972 55.712727 
L 905.450413 55.333636 
L 915.321855 55.333636 
L 925.193297 54.954545 
L 935.064738 54.954545 
L 944.93618 54.954545 
L 954.807622 54.954545 
L 964.679063 54.954545 
L 974.550505 54.954545 
L 984.421947 54.954545 
L 994.293388 54.954545 
L 1004.16483 54.954545 
L 1014.036272 54.954545 
L 1023.907713 54.954545 
L 1033.779155 54.954545 
L 1043.650597 54.954545 
L 1053.522039 54.954545 
L 1063.39348 54.954545 
L 1073.264922 54.954545 
L 1083.136364 54.954545 
" style="fill:none;stroke:#bcbd22;stroke-linecap:square;stroke-width:1.5;"/>
   </g>
   <g id="line2d_22">
    <path clip-path="url(#pc0e26593d9)" d="M 105.863636 434.045455 
L 115.735078 434.045455 
L 125.60652 400.272591 
L 135.477961 392.683183 
L 145.349403 390.026891 
L 155.220845 387.370598 
L 165.092287 388.129539 
L 174.963728 385.852716 
L 184.83517 386.232187 
L 194.706612 383.575894 
L 204.578053 382.058013 
L 214.449495 379.40172 
L 224.320937 377.504368 
L 234.192378 374.468605 
L 244.06382 365.740786 
L 253.935262 360.807671 
L 263.806703 351.320912 
L 273.678145 344.869915 
L 283.549587 331.967922 
L 293.421028 320.583811 
L 303.29247 310.338111 
L 313.163912 289.84671 
L 323.035354 272.011603 
L 332.906795 251.899672 
L 342.778237 231.787742 
L 352.649679 215.470516 
L 362.52112 203.706934 
L 372.392562 187.769178 
L 382.264004 170.693011 
L 392.135445 157.032078 
L 402.006887 147.924788 
L 411.878329 141.094322 
L 421.74977 136.540677 
L 431.621212 143.750614 
L 441.492654 148.304259 
L 451.364096 147.924788 
L 461.235537 148.683729 
L 471.106979 147.165848 
L 480.978421 139.57644 
L 490.849862 135.022796 
L 500.721304 133.125444 
L 510.592746 124.777095 
L 520.464187 117.946628 
L 530.335629 106.183047 
L 540.207071 99.73205 
L 550.078512 88.347939 
L 559.949954 81.896942 
L 569.821396 77.722768 
L 579.692837 68.236009 
L 589.564279 68.236009 
L 599.435721 58.369779 
L 609.307163 58.369779 
L 619.178604 56.851897 
L 629.050046 56.092957 
L 638.921488 56.092957 
L 648.792929 56.092957 
L 658.664371 55.334016 
L 668.535813 54.954545 
L 678.407254 54.954545 
L 688.278696 54.954545 
L 698.150138 54.954545 
L 708.021579 54.954545 
L 717.893021 54.954545 
L 727.764463 54.954545 
L 737.635904 54.954545 
L 747.507346 54.954545 
L 757.378788 54.954545 
L 767.25023 54.954545 
L 777.121671 54.954545 
L 786.993113 54.954545 
L 796.864555 54.954545 
L 806.735996 54.954545 
L 816.607438 54.954545 
L 826.47888 54.954545 
L 836.350321 54.954545 
L 846.221763 54.954545 
L 856.093205 54.954545 
L 865.964646 54.954545 
L 875.836088 54.954545 
L 885.70753 55.713486 
L 895.578972 55.713486 
L 905.450413 55.713486 
L 915.321855 55.713486 
L 925.193297 55.713486 
L 935.064738 55.713486 
L 944.93618 55.713486 
L 954.807622 55.713486 
L 964.679063 55.713486 
L 974.550505 54.954545 
L 984.421947 54.954545 
L 994.293388 54.954545 
L 1004.16483 54.954545 
L 1014.036272 54.954545 
L 1023.907713 54.954545 
L 1033.779155 54.954545 
L 1043.650597 54.954545 
L 1053.522039 54.954545 
L 1063.39348 54.954545 
L 1073.264922 54.954545 
L 1083.136364 54.954545 
" style="fill:none;stroke:#17becf;stroke-linecap:square;stroke-width:1.5;"/>
   </g>
   <g id="patch_3">
    <path d="M 57 453 
L 57 36 
" style="fill:none;stroke:#000000;stroke-linecap:square;stroke-linejoin:miter;stroke-width:0.8;"/>
   </g>
   <g id="patch_4">
    <path d="M 1132 453 
L 1132 36 
" style="fill:none;stroke:#000000;stroke-linecap:square;stroke-linejoin:miter;stroke-width:0.8;"/>
   </g>
   <g id="patch_5">
    <path d="M 57 453 
L 1132 453 
" style="fill:none;stroke:#000000;stroke-linecap:square;stroke-linejoin:miter;stroke-width:0.8;"/>
   </g>
   <g id="patch_6">
    <path d="M 57 36 
L 1132 36 
" style="fill:none;stroke:#000000;stroke-linecap:square;stroke-linejoin:miter;stroke-width:0.8;"/>
   </g>
   <g id="text_15">
    <!-- Recognition for the images of each digit from 0 to 9 -->
    <g transform="translate(439.011875 30)scale(0.12 -0.12)">
     <defs>
      <path d="M 3513 2113 
L 3513 0 
L 2938 0 
L 2938 2094 
Q 2938 2591 2744 2837 
Q 2550 3084 2163 3084 
Q 1697 3084 1428 2787 
Q 1159 2491 1159 1978 
L 1159 0 
L 581 0 
L 581 4863 
L 1159 4863 
L 1159 2956 
Q 1366 3272 1645 3428 
Q 1925 3584 2291 3584 
Q 2894 3584 3203 3211 
Q 3513 2838 3513 2113 
z
" id="DejaVuSans-68" transform="scale(0.015625)"/>
      <path d="M 703 97 
L 703 672 
Q 941 559 1184 500 
Q 1428 441 1663 441 
Q 2288 441 2617 861 
Q 2947 1281 2994 2138 
Q 2813 1869 2534 1725 
Q 2256 1581 1919 1581 
Q 1219 1581 811 2004 
Q 403 2428 403 3163 
Q 403 3881 828 4315 
Q 1253 4750 1959 4750 
Q 2769 4750 3195 4129 
Q 3622 3509 3622 2328 
Q 3622 1225 3098 567 
Q 2575 -91 1691 -91 
Q 1453 -91 1209 -44 
Q 966 3 703 97 
z
M 1959 2075 
Q 2384 2075 2632 2365 
Q 2881 2656 2881 3163 
Q 2881 3666 2632 3958 
Q 2384 4250 1959 4250 
Q 1534 4250 1286 3958 
Q 1038 3666 1038 3163 
Q 1038 2656 1286 2365 
Q 1534 2075 1959 2075 
z
" id="DejaVuSans-39" transform="scale(0.015625)"/>
     </defs>
     <use xlink:href="#DejaVuSans-52"/>
     <use x="64.982422" xlink:href="#DejaVuSans-65"/>
     <use x="126.505859" xlink:href="#DejaVuSans-63"/>
     <use x="181.486328" xlink:href="#DejaVuSans-6f"/>
     <use x="242.667969" xlink:href="#DejaVuSans-67"/>
     <use x="306.144531" xlink:href="#DejaVuSans-6e"/>
     <use x="369.523438" xlink:href="#DejaVuSans-69"/>
     <use x="397.306641" xlink:href="#DejaVuSans-74"/>
     <use x="436.515625" xlink:href="#DejaVuSans-69"/>
     <use x="464.298828" xlink:href="#DejaVuSans-6f"/>
     <use x="525.480469" xlink:href="#DejaVuSans-6e"/>
     <use x="588.859375" xlink:href="#DejaVuSans-20"/>
     <use x="620.646484" xlink:href="#DejaVuSans-66"/>
     <use x="655.851562" xlink:href="#DejaVuSans-6f"/>
     <use x="717.033203" xlink:href="#DejaVuSans-72"/>
     <use x="758.146484" xlink:href="#DejaVuSans-20"/>
     <use x="789.933594" xlink:href="#DejaVuSans-74"/>
     <use x="829.142578" xlink:href="#DejaVuSans-68"/>
     <use x="892.521484" xlink:href="#DejaVuSans-65"/>
     <use x="954.044922" xlink:href="#DejaVuSans-20"/>
     <use x="985.832031" xlink:href="#DejaVuSans-69"/>
     <use x="1013.615234" xlink:href="#DejaVuSans-6d"/>
     <use x="1111.027344" xlink:href="#DejaVuSans-61"/>
     <use x="1172.306641" xlink:href="#DejaVuSans-67"/>
     <use x="1235.783203" xlink:href="#DejaVuSans-65"/>
     <use x="1297.306641" xlink:href="#DejaVuSans-73"/>
     <use x="1349.40625" xlink:href="#DejaVuSans-20"/>
     <use x="1381.193359" xlink:href="#DejaVuSans-6f"/>
     <use x="1442.375" xlink:href="#DejaVuSans-66"/>
     <use x="1477.580078" xlink:href="#DejaVuSans-20"/>
     <use x="1509.367188" xlink:href="#DejaVuSans-65"/>
     <use x="1570.890625" xlink:href="#DejaVuSans-61"/>
     <use x="1632.169922" xlink:href="#DejaVuSans-63"/>
     <use x="1687.150391" xlink:href="#DejaVuSans-68"/>
     <use x="1750.529297" xlink:href="#DejaVuSans-20"/>
     <use x="1782.316406" xlink:href="#DejaVuSans-64"/>
     <use x="1845.792969" xlink:href="#DejaVuSans-69"/>
     <use x="1873.576172" xlink:href="#DejaVuSans-67"/>
     <use x="1937.052734" xlink:href="#DejaVuSans-69"/>
     <use x="1964.835938" xlink:href="#DejaVuSans-74"/>
     <use x="2004.044922" xlink:href="#DejaVuSans-20"/>
     <use x="2035.832031" xlink:href="#DejaVuSans-66"/>
     <use x="2071.037109" xlink:href="#DejaVuSans-72"/>
     <use x="2109.900391" xlink:href="#DejaVuSans-6f"/>
     <use x="2171.082031" xlink:href="#DejaVuSans-6d"/>
     <use x="2268.494141" xlink:href="#DejaVuSans-20"/>
     <use x="2300.28125" xlink:href="#DejaVuSans-30"/>
     <use x="2363.904297" xlink:href="#DejaVuSans-20"/>
     <use x="2395.691406" xlink:href="#DejaVuSans-74"/>
     <use x="2434.900391" xlink:href="#DejaVuSans-6f"/>
     <use x="2496.082031" xlink:href="#DejaVuSans-20"/>
     <use x="2527.869141" xlink:href="#DejaVuSans-39"/>
    </g>
   </g>
   <g id="legend_1">
    <g id="patch_7">
     <path d="M 1086.6375 190.78125 
L 1125 190.78125 
Q 1127 190.78125 1127 188.78125 
L 1127 43 
Q 1127 41 1125 41 
L 1086.6375 41 
Q 1084.6375 41 1084.6375 43 
L 1084.6375 188.78125 
Q 1084.6375 190.78125 1086.6375 190.78125 
z
" style="fill:#ffffff;opacity:0.8;stroke:#cccccc;stroke-linejoin:miter;"/>
    </g>
    <g id="line2d_23">
     <path d="M 1088.6375 49.098437 
L 1108.6375 49.098437 
" style="fill:none;stroke:#1f77b4;stroke-linecap:square;stroke-width:1.5;"/>
    </g>
    <g id="line2d_24"/>
    <g id="text_16">
     <!-- 0 -->
     <g transform="translate(1116.6375 52.598437)scale(0.1 -0.1)">
      <use xlink:href="#DejaVuSans-30"/>
     </g>
    </g>
    <g id="line2d_25">
     <path d="M 1088.6375 63.776562 
L 1108.6375 63.776562 
" style="fill:none;stroke:#ff7f0e;stroke-linecap:square;stroke-width:1.5;"/>
    </g>
    <g id="line2d_26"/>
    <g id="text_17">
     <!-- 1 -->
     <g transform="translate(1116.6375 67.276562)scale(0.1 -0.1)">
      <use xlink:href="#DejaVuSans-31"/>
     </g>
    </g>
    <g id="line2d_27">
     <path d="M 1088.6375 78.454687 
L 1108.6375 78.454687 
" style="fill:none;stroke:#2ca02c;stroke-linecap:square;stroke-width:1.5;"/>
    </g>
    <g id="line2d_28"/>
    <g id="text_18">
     <!-- 2 -->
     <g transform="translate(1116.6375 81.954687)scale(0.1 -0.1)">
      <use xlink:href="#DejaVuSans-32"/>
     </g>
    </g>
    <g id="line2d_29">
     <path d="M 1088.6375 93.132812 
L 1108.6375 93.132812 
" style="fill:none;stroke:#d62728;stroke-linecap:square;stroke-width:1.5;"/>
    </g>
    <g id="line2d_30"/>
    <g id="text_19">
     <!-- 3 -->
     <g transform="translate(1116.6375 96.632812)scale(0.1 -0.1)">
      <defs>
       <path d="M 2597 2516 
Q 3050 2419 3304 2112 
Q 3559 1806 3559 1356 
Q 3559 666 3084 287 
Q 2609 -91 1734 -91 
Q 1441 -91 1130 -33 
Q 819 25 488 141 
L 488 750 
Q 750 597 1062 519 
Q 1375 441 1716 441 
Q 2309 441 2620 675 
Q 2931 909 2931 1356 
Q 2931 1769 2642 2001 
Q 2353 2234 1838 2234 
L 1294 2234 
L 1294 2753 
L 1863 2753 
Q 2328 2753 2575 2939 
Q 2822 3125 2822 3475 
Q 2822 3834 2567 4026 
Q 2313 4219 1838 4219 
Q 1578 4219 1281 4162 
Q 984 4106 628 3988 
L 628 4550 
Q 988 4650 1302 4700 
Q 1616 4750 1894 4750 
Q 2613 4750 3031 4423 
Q 3450 4097 3450 3541 
Q 3450 3153 3228 2886 
Q 3006 2619 2597 2516 
z
" id="DejaVuSans-33" transform="scale(0.015625)"/>
      </defs>
      <use xlink:href="#DejaVuSans-33"/>
     </g>
    </g>
    <g id="line2d_31">
     <path d="M 1088.6375 107.810937 
L 1108.6375 107.810937 
" style="fill:none;stroke:#9467bd;stroke-linecap:square;stroke-width:1.5;"/>
    </g>
    <g id="line2d_32"/>
    <g id="text_20">
     <!-- 4 -->
     <g transform="translate(1116.6375 111.310937)scale(0.1 -0.1)">
      <use xlink:href="#DejaVuSans-34"/>
     </g>
    </g>
    <g id="line2d_33">
     <path d="M 1088.6375 122.489062 
L 1108.6375 122.489062 
" style="fill:none;stroke:#8c564b;stroke-linecap:square;stroke-width:1.5;"/>
    </g>
    <g id="line2d_34"/>
    <g id="text_21">
     <!-- 5 -->
     <g transform="translate(1116.6375 125.989062)scale(0.1 -0.1)">
      <defs>
       <path d="M 691 4666 
L 3169 4666 
L 3169 4134 
L 1269 4134 
L 1269 2991 
Q 1406 3038 1543 3061 
Q 1681 3084 1819 3084 
Q 2600 3084 3056 2656 
Q 3513 2228 3513 1497 
Q 3513 744 3044 326 
Q 2575 -91 1722 -91 
Q 1428 -91 1123 -41 
Q 819 9 494 109 
L 494 744 
Q 775 591 1075 516 
Q 1375 441 1709 441 
Q 2250 441 2565 725 
Q 2881 1009 2881 1497 
Q 2881 1984 2565 2268 
Q 2250 2553 1709 2553 
Q 1456 2553 1204 2497 
Q 953 2441 691 2322 
L 691 4666 
z
" id="DejaVuSans-35" transform="scale(0.015625)"/>
      </defs>
      <use xlink:href="#DejaVuSans-35"/>
     </g>
    </g>
    <g id="line2d_35">
     <path d="M 1088.6375 137.167187 
L 1108.6375 137.167187 
" style="fill:none;stroke:#e377c2;stroke-linecap:square;stroke-width:1.5;"/>
    </g>
    <g id="line2d_36"/>
    <g id="text_22">
     <!-- 6 -->
     <g transform="translate(1116.6375 140.667187)scale(0.1 -0.1)">
      <use xlink:href="#DejaVuSans-36"/>
     </g>
    </g>
    <g id="line2d_37">
     <path d="M 1088.6375 151.845312 
L 1108.6375 151.845312 
" style="fill:none;stroke:#7f7f7f;stroke-linecap:square;stroke-width:1.5;"/>
    </g>
    <g id="line2d_38"/>
    <g id="text_23">
     <!-- 7 -->
     <g transform="translate(1116.6375 155.345312)scale(0.1 -0.1)">
      <defs>
       <path d="M 525 4666 
L 3525 4666 
L 3525 4397 
L 1831 0 
L 1172 0 
L 2766 4134 
L 525 4134 
L 525 4666 
z
" id="DejaVuSans-37" transform="scale(0.015625)"/>
      </defs>
      <use xlink:href="#DejaVuSans-37"/>
     </g>
    </g>
    <g id="line2d_39">
     <path d="M 1088.6375 166.523437 
L 1108.6375 166.523437 
" style="fill:none;stroke:#bcbd22;stroke-linecap:square;stroke-width:1.5;"/>
    </g>
    <g id="line2d_40"/>
    <g id="text_24">
     <!-- 8 -->
     <g transform="translate(1116.6375 170.023437)scale(0.1 -0.1)">
      <use xlink:href="#DejaVuSans-38"/>
     </g>
    </g>
    <g id="line2d_41">
     <path d="M 1088.6375 181.201562 
L 1108.6375 181.201562 
" style="fill:none;stroke:#17becf;stroke-linecap:square;stroke-width:1.5;"/>
    </g>
    <g id="line2d_42"/>
    <g id="text_25">
     <!-- 9 -->
     <g transform="translate(1116.6375 184.701562)scale(0.1 -0.1)">
      <use xlink:href="#DejaVuSans-39"/>
     </g>
    </g>
   </g>
  </g>
 </g>
 <defs>
  <clipPath id="pc0e26593d9">
   <rect height="417" width="1075" x="57" y="36"/>
  </clipPath>
 </defs>
</svg>
