<?xml version="1.0" encoding="utf-8" standalone="no"?>
<!DOCTYPE svg PUBLIC "-//W3C//DTD SVG 1.1//EN"
  "http://www.w3.org/Graphics/SVG/1.1/DTD/svg11.dtd">
<svg height="504pt" version="1.1" viewBox="0 0 1152 504" width="1152pt" xmlns="http://www.w3.org/2000/svg" xmlns:xlink="http://www.w3.org/1999/xlink">
 <metadata>
  <rdf:RDF xmlns:cc="http://creativecommons.org/ns#" xmlns:dc="http://purl.org/dc/elements/1.1/" xmlns:rdf="http://www.w3.org/1999/02/22-rdf-syntax-ns#">
   <cc:Work>
    <dc:type rdf:resource="http://purl.org/dc/dcmitype/StillImage"/>
    <dc:date>2022-04-01T15:08:58.312946</dc:date>
    <dc:format>image/svg+xml</dc:format>
    <dc:creator>
     <cc:Agent>
      <dc:title>Matplotlib v3.4.3, https://matplotlib.org/</dc:title>
     </cc:Agent>
    </dc:creator>
   </cc:Work>
  </rdf:RDF>
 </metadata>
 <defs>
  <style type="text/css">*{stroke-linecap:butt;stroke-linejoin:round;}</style>
 </defs>
 <g id="figure_1">
  <g id="patch_1">
   <path d="M 0 504 
L 1152 504 
L 1152 0 
L 0 0 
z
" style="fill:none;"/>
  </g>
  <g id="axes_1">
   <g id="patch_2">
    <path d="M 57 453 
L 1132 453 
L 1132 36 
L 57 36 
z
" style="fill:#ffffff;"/>
   </g>
   <g id="matplotlib.axis_1">
    <g id="xtick_1">
     <g id="line2d_1">
      <defs>
       <path d="M 0 0 
L 0 3.5 
" id="m3f46c9ebce" style="stroke:#000000;stroke-width:0.8;"/>
      </defs>
      <g>
       <use style="stroke:#000000;stroke-width:0.8;" x="95.992195" xlink:href="#m3f46c9ebce" y="453"/>
      </g>
     </g>
     <g id="text_1">
      <!-- 0.0 -->
      <g transform="translate(88.040632 467.598438)scale(0.1 -0.1)">
       <defs>
        <path d="M 2034 4250 
Q 1547 4250 1301 3770 
Q 1056 3291 1056 2328 
Q 1056 1369 1301 889 
Q 1547 409 2034 409 
Q 2525 409 2770 889 
Q 3016 1369 3016 2328 
Q 3016 3291 2770 3770 
Q 2525 4250 2034 4250 
z
M 2034 4750 
Q 2819 4750 3233 4129 
Q 3647 3509 3647 2328 
Q 3647 1150 3233 529 
Q 2819 -91 2034 -91 
Q 1250 -91 836 529 
Q 422 1150 422 2328 
Q 422 3509 836 4129 
Q 1250 4750 2034 4750 
z
" id="DejaVuSans-30" transform="scale(0.015625)"/>
        <path d="M 684 794 
L 1344 794 
L 1344 0 
L 684 0 
L 684 794 
z
" id="DejaVuSans-2e" transform="scale(0.015625)"/>
       </defs>
       <use xlink:href="#DejaVuSans-30"/>
       <use x="63.623047" xlink:href="#DejaVuSans-2e"/>
       <use x="95.410156" xlink:href="#DejaVuSans-30"/>
      </g>
     </g>
    </g>
    <g id="xtick_2">
     <g id="line2d_2">
      <g>
       <use style="stroke:#000000;stroke-width:0.8;" x="293.421028" xlink:href="#m3f46c9ebce" y="453"/>
      </g>
     </g>
     <g id="text_2">
      <!-- 0.2 -->
      <g transform="translate(285.469466 467.598438)scale(0.1 -0.1)">
       <defs>
        <path d="M 1228 531 
L 3431 531 
L 3431 0 
L 469 0 
L 469 531 
Q 828 903 1448 1529 
Q 2069 2156 2228 2338 
Q 2531 2678 2651 2914 
Q 2772 3150 2772 3378 
Q 2772 3750 2511 3984 
Q 2250 4219 1831 4219 
Q 1534 4219 1204 4116 
Q 875 4013 500 3803 
L 500 4441 
Q 881 4594 1212 4672 
Q 1544 4750 1819 4750 
Q 2544 4750 2975 4387 
Q 3406 4025 3406 3419 
Q 3406 3131 3298 2873 
Q 3191 2616 2906 2266 
Q 2828 2175 2409 1742 
Q 1991 1309 1228 531 
z
" id="DejaVuSans-32" transform="scale(0.015625)"/>
       </defs>
       <use xlink:href="#DejaVuSans-30"/>
       <use x="63.623047" xlink:href="#DejaVuSans-2e"/>
       <use x="95.410156" xlink:href="#DejaVuSans-32"/>
      </g>
     </g>
    </g>
    <g id="xtick_3">
     <g id="line2d_3">
      <g>
       <use style="stroke:#000000;stroke-width:0.8;" x="490.849862" xlink:href="#m3f46c9ebce" y="453"/>
      </g>
     </g>
     <g id="text_3">
      <!-- 0.4 -->
      <g transform="translate(482.8983 467.598438)scale(0.1 -0.1)">
       <defs>
        <path d="M 2419 4116 
L 825 1625 
L 2419 1625 
L 2419 4116 
z
M 2253 4666 
L 3047 4666 
L 3047 1625 
L 3713 1625 
L 3713 1100 
L 3047 1100 
L 3047 0 
L 2419 0 
L 2419 1100 
L 313 1100 
L 313 1709 
L 2253 4666 
z
" id="DejaVuSans-34" transform="scale(0.015625)"/>
       </defs>
       <use xlink:href="#DejaVuSans-30"/>
       <use x="63.623047" xlink:href="#DejaVuSans-2e"/>
       <use x="95.410156" xlink:href="#DejaVuSans-34"/>
      </g>
     </g>
    </g>
    <g id="xtick_4">
     <g id="line2d_4">
      <g>
       <use style="stroke:#000000;stroke-width:0.8;" x="688.278696" xlink:href="#m3f46c9ebce" y="453"/>
      </g>
     </g>
     <g id="text_4">
      <!-- 0.6 -->
      <g transform="translate(680.327134 467.598438)scale(0.1 -0.1)">
       <defs>
        <path d="M 2113 2584 
Q 1688 2584 1439 2293 
Q 1191 2003 1191 1497 
Q 1191 994 1439 701 
Q 1688 409 2113 409 
Q 2538 409 2786 701 
Q 3034 994 3034 1497 
Q 3034 2003 2786 2293 
Q 2538 2584 2113 2584 
z
M 3366 4563 
L 3366 3988 
Q 3128 4100 2886 4159 
Q 2644 4219 2406 4219 
Q 1781 4219 1451 3797 
Q 1122 3375 1075 2522 
Q 1259 2794 1537 2939 
Q 1816 3084 2150 3084 
Q 2853 3084 3261 2657 
Q 3669 2231 3669 1497 
Q 3669 778 3244 343 
Q 2819 -91 2113 -91 
Q 1303 -91 875 529 
Q 447 1150 447 2328 
Q 447 3434 972 4092 
Q 1497 4750 2381 4750 
Q 2619 4750 2861 4703 
Q 3103 4656 3366 4563 
z
" id="DejaVuSans-36" transform="scale(0.015625)"/>
       </defs>
       <use xlink:href="#DejaVuSans-30"/>
       <use x="63.623047" xlink:href="#DejaVuSans-2e"/>
       <use x="95.410156" xlink:href="#DejaVuSans-36"/>
      </g>
     </g>
    </g>
    <g id="xtick_5">
     <g id="line2d_5">
      <g>
       <use style="stroke:#000000;stroke-width:0.8;" x="885.70753" xlink:href="#m3f46c9ebce" y="453"/>
      </g>
     </g>
     <g id="text_5">
      <!-- 0.8 -->
      <g transform="translate(877.755967 467.598438)scale(0.1 -0.1)">
       <defs>
        <path d="M 2034 2216 
Q 1584 2216 1326 1975 
Q 1069 1734 1069 1313 
Q 1069 891 1326 650 
Q 1584 409 2034 409 
Q 2484 409 2743 651 
Q 3003 894 3003 1313 
Q 3003 1734 2745 1975 
Q 2488 2216 2034 2216 
z
M 1403 2484 
Q 997 2584 770 2862 
Q 544 3141 544 3541 
Q 544 4100 942 4425 
Q 1341 4750 2034 4750 
Q 2731 4750 3128 4425 
Q 3525 4100 3525 3541 
Q 3525 3141 3298 2862 
Q 3072 2584 2669 2484 
Q 3125 2378 3379 2068 
Q 3634 1759 3634 1313 
Q 3634 634 3220 271 
Q 2806 -91 2034 -91 
Q 1263 -91 848 271 
Q 434 634 434 1313 
Q 434 1759 690 2068 
Q 947 2378 1403 2484 
z
M 1172 3481 
Q 1172 3119 1398 2916 
Q 1625 2713 2034 2713 
Q 2441 2713 2670 2916 
Q 2900 3119 2900 3481 
Q 2900 3844 2670 4047 
Q 2441 4250 2034 4250 
Q 1625 4250 1398 4047 
Q 1172 3844 1172 3481 
z
" id="DejaVuSans-38" transform="scale(0.015625)"/>
       </defs>
       <use xlink:href="#DejaVuSans-30"/>
       <use x="63.623047" xlink:href="#DejaVuSans-2e"/>
       <use x="95.410156" xlink:href="#DejaVuSans-38"/>
      </g>
     </g>
    </g>
    <g id="xtick_6">
     <g id="line2d_6">
      <g>
       <use style="stroke:#000000;stroke-width:0.8;" x="1083.136364" xlink:href="#m3f46c9ebce" y="453"/>
      </g>
     </g>
     <g id="text_6">
      <!-- 1.0 -->
      <g transform="translate(1075.184801 467.598438)scale(0.1 -0.1)">
       <defs>
        <path d="M 794 531 
L 1825 531 
L 1825 4091 
L 703 3866 
L 703 4441 
L 1819 4666 
L 2450 4666 
L 2450 531 
L 3481 531 
L 3481 0 
L 794 0 
L 794 531 
z
" id="DejaVuSans-31" transform="scale(0.015625)"/>
       </defs>
       <use xlink:href="#DejaVuSans-31"/>
       <use x="63.623047" xlink:href="#DejaVuSans-2e"/>
       <use x="95.410156" xlink:href="#DejaVuSans-30"/>
      </g>
     </g>
    </g>
    <g id="text_7">
     <!-- Ratio of drawing completion -->
     <g transform="translate(524.067969 481.276563)scale(0.1 -0.1)">
      <defs>
       <path d="M 2841 2188 
Q 3044 2119 3236 1894 
Q 3428 1669 3622 1275 
L 4263 0 
L 3584 0 
L 2988 1197 
Q 2756 1666 2539 1819 
Q 2322 1972 1947 1972 
L 1259 1972 
L 1259 0 
L 628 0 
L 628 4666 
L 2053 4666 
Q 2853 4666 3247 4331 
Q 3641 3997 3641 3322 
Q 3641 2881 3436 2590 
Q 3231 2300 2841 2188 
z
M 1259 4147 
L 1259 2491 
L 2053 2491 
Q 2509 2491 2742 2702 
Q 2975 2913 2975 3322 
Q 2975 3731 2742 3939 
Q 2509 4147 2053 4147 
L 1259 4147 
z
" id="DejaVuSans-52" transform="scale(0.015625)"/>
       <path d="M 2194 1759 
Q 1497 1759 1228 1600 
Q 959 1441 959 1056 
Q 959 750 1161 570 
Q 1363 391 1709 391 
Q 2188 391 2477 730 
Q 2766 1069 2766 1631 
L 2766 1759 
L 2194 1759 
z
M 3341 1997 
L 3341 0 
L 2766 0 
L 2766 531 
Q 2569 213 2275 61 
Q 1981 -91 1556 -91 
Q 1019 -91 701 211 
Q 384 513 384 1019 
Q 384 1609 779 1909 
Q 1175 2209 1959 2209 
L 2766 2209 
L 2766 2266 
Q 2766 2663 2505 2880 
Q 2244 3097 1772 3097 
Q 1472 3097 1187 3025 
Q 903 2953 641 2809 
L 641 3341 
Q 956 3463 1253 3523 
Q 1550 3584 1831 3584 
Q 2591 3584 2966 3190 
Q 3341 2797 3341 1997 
z
" id="DejaVuSans-61" transform="scale(0.015625)"/>
       <path d="M 1172 4494 
L 1172 3500 
L 2356 3500 
L 2356 3053 
L 1172 3053 
L 1172 1153 
Q 1172 725 1289 603 
Q 1406 481 1766 481 
L 2356 481 
L 2356 0 
L 1766 0 
Q 1100 0 847 248 
Q 594 497 594 1153 
L 594 3053 
L 172 3053 
L 172 3500 
L 594 3500 
L 594 4494 
L 1172 4494 
z
" id="DejaVuSans-74" transform="scale(0.015625)"/>
       <path d="M 603 3500 
L 1178 3500 
L 1178 0 
L 603 0 
L 603 3500 
z
M 603 4863 
L 1178 4863 
L 1178 4134 
L 603 4134 
L 603 4863 
z
" id="DejaVuSans-69" transform="scale(0.015625)"/>
       <path d="M 1959 3097 
Q 1497 3097 1228 2736 
Q 959 2375 959 1747 
Q 959 1119 1226 758 
Q 1494 397 1959 397 
Q 2419 397 2687 759 
Q 2956 1122 2956 1747 
Q 2956 2369 2687 2733 
Q 2419 3097 1959 3097 
z
M 1959 3584 
Q 2709 3584 3137 3096 
Q 3566 2609 3566 1747 
Q 3566 888 3137 398 
Q 2709 -91 1959 -91 
Q 1206 -91 779 398 
Q 353 888 353 1747 
Q 353 2609 779 3096 
Q 1206 3584 1959 3584 
z
" id="DejaVuSans-6f" transform="scale(0.015625)"/>
       <path id="DejaVuSans-20" transform="scale(0.015625)"/>
       <path d="M 2375 4863 
L 2375 4384 
L 1825 4384 
Q 1516 4384 1395 4259 
Q 1275 4134 1275 3809 
L 1275 3500 
L 2222 3500 
L 2222 3053 
L 1275 3053 
L 1275 0 
L 697 0 
L 697 3053 
L 147 3053 
L 147 3500 
L 697 3500 
L 697 3744 
Q 697 4328 969 4595 
Q 1241 4863 1831 4863 
L 2375 4863 
z
" id="DejaVuSans-66" transform="scale(0.015625)"/>
       <path d="M 2906 2969 
L 2906 4863 
L 3481 4863 
L 3481 0 
L 2906 0 
L 2906 525 
Q 2725 213 2448 61 
Q 2172 -91 1784 -91 
Q 1150 -91 751 415 
Q 353 922 353 1747 
Q 353 2572 751 3078 
Q 1150 3584 1784 3584 
Q 2172 3584 2448 3432 
Q 2725 3281 2906 2969 
z
M 947 1747 
Q 947 1113 1208 752 
Q 1469 391 1925 391 
Q 2381 391 2643 752 
Q 2906 1113 2906 1747 
Q 2906 2381 2643 2742 
Q 2381 3103 1925 3103 
Q 1469 3103 1208 2742 
Q 947 2381 947 1747 
z
" id="DejaVuSans-64" transform="scale(0.015625)"/>
       <path d="M 2631 2963 
Q 2534 3019 2420 3045 
Q 2306 3072 2169 3072 
Q 1681 3072 1420 2755 
Q 1159 2438 1159 1844 
L 1159 0 
L 581 0 
L 581 3500 
L 1159 3500 
L 1159 2956 
Q 1341 3275 1631 3429 
Q 1922 3584 2338 3584 
Q 2397 3584 2469 3576 
Q 2541 3569 2628 3553 
L 2631 2963 
z
" id="DejaVuSans-72" transform="scale(0.015625)"/>
       <path d="M 269 3500 
L 844 3500 
L 1563 769 
L 2278 3500 
L 2956 3500 
L 3675 769 
L 4391 3500 
L 4966 3500 
L 4050 0 
L 3372 0 
L 2619 2869 
L 1863 0 
L 1184 0 
L 269 3500 
z
" id="DejaVuSans-77" transform="scale(0.015625)"/>
       <path d="M 3513 2113 
L 3513 0 
L 2938 0 
L 2938 2094 
Q 2938 2591 2744 2837 
Q 2550 3084 2163 3084 
Q 1697 3084 1428 2787 
Q 1159 2491 1159 1978 
L 1159 0 
L 581 0 
L 581 3500 
L 1159 3500 
L 1159 2956 
Q 1366 3272 1645 3428 
Q 1925 3584 2291 3584 
Q 2894 3584 3203 3211 
Q 3513 2838 3513 2113 
z
" id="DejaVuSans-6e" transform="scale(0.015625)"/>
       <path d="M 2906 1791 
Q 2906 2416 2648 2759 
Q 2391 3103 1925 3103 
Q 1463 3103 1205 2759 
Q 947 2416 947 1791 
Q 947 1169 1205 825 
Q 1463 481 1925 481 
Q 2391 481 2648 825 
Q 2906 1169 2906 1791 
z
M 3481 434 
Q 3481 -459 3084 -895 
Q 2688 -1331 1869 -1331 
Q 1566 -1331 1297 -1286 
Q 1028 -1241 775 -1147 
L 775 -588 
Q 1028 -725 1275 -790 
Q 1522 -856 1778 -856 
Q 2344 -856 2625 -561 
Q 2906 -266 2906 331 
L 2906 616 
Q 2728 306 2450 153 
Q 2172 0 1784 0 
Q 1141 0 747 490 
Q 353 981 353 1791 
Q 353 2603 747 3093 
Q 1141 3584 1784 3584 
Q 2172 3584 2450 3431 
Q 2728 3278 2906 2969 
L 2906 3500 
L 3481 3500 
L 3481 434 
z
" id="DejaVuSans-67" transform="scale(0.015625)"/>
       <path d="M 3122 3366 
L 3122 2828 
Q 2878 2963 2633 3030 
Q 2388 3097 2138 3097 
Q 1578 3097 1268 2742 
Q 959 2388 959 1747 
Q 959 1106 1268 751 
Q 1578 397 2138 397 
Q 2388 397 2633 464 
Q 2878 531 3122 666 
L 3122 134 
Q 2881 22 2623 -34 
Q 2366 -91 2075 -91 
Q 1284 -91 818 406 
Q 353 903 353 1747 
Q 353 2603 823 3093 
Q 1294 3584 2113 3584 
Q 2378 3584 2631 3529 
Q 2884 3475 3122 3366 
z
" id="DejaVuSans-63" transform="scale(0.015625)"/>
       <path d="M 3328 2828 
Q 3544 3216 3844 3400 
Q 4144 3584 4550 3584 
Q 5097 3584 5394 3201 
Q 5691 2819 5691 2113 
L 5691 0 
L 5113 0 
L 5113 2094 
Q 5113 2597 4934 2840 
Q 4756 3084 4391 3084 
Q 3944 3084 3684 2787 
Q 3425 2491 3425 1978 
L 3425 0 
L 2847 0 
L 2847 2094 
Q 2847 2600 2669 2842 
Q 2491 3084 2119 3084 
Q 1678 3084 1418 2786 
Q 1159 2488 1159 1978 
L 1159 0 
L 581 0 
L 581 3500 
L 1159 3500 
L 1159 2956 
Q 1356 3278 1631 3431 
Q 1906 3584 2284 3584 
Q 2666 3584 2933 3390 
Q 3200 3197 3328 2828 
z
" id="DejaVuSans-6d" transform="scale(0.015625)"/>
       <path d="M 1159 525 
L 1159 -1331 
L 581 -1331 
L 581 3500 
L 1159 3500 
L 1159 2969 
Q 1341 3281 1617 3432 
Q 1894 3584 2278 3584 
Q 2916 3584 3314 3078 
Q 3713 2572 3713 1747 
Q 3713 922 3314 415 
Q 2916 -91 2278 -91 
Q 1894 -91 1617 61 
Q 1341 213 1159 525 
z
M 3116 1747 
Q 3116 2381 2855 2742 
Q 2594 3103 2138 3103 
Q 1681 3103 1420 2742 
Q 1159 2381 1159 1747 
Q 1159 1113 1420 752 
Q 1681 391 2138 391 
Q 2594 391 2855 752 
Q 3116 1113 3116 1747 
z
" id="DejaVuSans-70" transform="scale(0.015625)"/>
       <path d="M 603 4863 
L 1178 4863 
L 1178 0 
L 603 0 
L 603 4863 
z
" id="DejaVuSans-6c" transform="scale(0.015625)"/>
       <path d="M 3597 1894 
L 3597 1613 
L 953 1613 
Q 991 1019 1311 708 
Q 1631 397 2203 397 
Q 2534 397 2845 478 
Q 3156 559 3463 722 
L 3463 178 
Q 3153 47 2828 -22 
Q 2503 -91 2169 -91 
Q 1331 -91 842 396 
Q 353 884 353 1716 
Q 353 2575 817 3079 
Q 1281 3584 2069 3584 
Q 2775 3584 3186 3129 
Q 3597 2675 3597 1894 
z
M 3022 2063 
Q 3016 2534 2758 2815 
Q 2500 3097 2075 3097 
Q 1594 3097 1305 2825 
Q 1016 2553 972 2059 
L 3022 2063 
z
" id="DejaVuSans-65" transform="scale(0.015625)"/>
      </defs>
      <use xlink:href="#DejaVuSans-52"/>
      <use x="67.232422" xlink:href="#DejaVuSans-61"/>
      <use x="128.511719" xlink:href="#DejaVuSans-74"/>
      <use x="167.720703" xlink:href="#DejaVuSans-69"/>
      <use x="195.503906" xlink:href="#DejaVuSans-6f"/>
      <use x="256.685547" xlink:href="#DejaVuSans-20"/>
      <use x="288.472656" xlink:href="#DejaVuSans-6f"/>
      <use x="349.654297" xlink:href="#DejaVuSans-66"/>
      <use x="384.859375" xlink:href="#DejaVuSans-20"/>
      <use x="416.646484" xlink:href="#DejaVuSans-64"/>
      <use x="480.123047" xlink:href="#DejaVuSans-72"/>
      <use x="521.236328" xlink:href="#DejaVuSans-61"/>
      <use x="582.515625" xlink:href="#DejaVuSans-77"/>
      <use x="664.302734" xlink:href="#DejaVuSans-69"/>
      <use x="692.085938" xlink:href="#DejaVuSans-6e"/>
      <use x="755.464844" xlink:href="#DejaVuSans-67"/>
      <use x="818.941406" xlink:href="#DejaVuSans-20"/>
      <use x="850.728516" xlink:href="#DejaVuSans-63"/>
      <use x="905.708984" xlink:href="#DejaVuSans-6f"/>
      <use x="966.890625" xlink:href="#DejaVuSans-6d"/>
      <use x="1064.302734" xlink:href="#DejaVuSans-70"/>
      <use x="1127.779297" xlink:href="#DejaVuSans-6c"/>
      <use x="1155.5625" xlink:href="#DejaVuSans-65"/>
      <use x="1217.085938" xlink:href="#DejaVuSans-74"/>
      <use x="1256.294922" xlink:href="#DejaVuSans-69"/>
      <use x="1284.078125" xlink:href="#DejaVuSans-6f"/>
      <use x="1345.259766" xlink:href="#DejaVuSans-6e"/>
     </g>
    </g>
   </g>
   <g id="matplotlib.axis_2">
    <g id="ytick_1">
     <g id="line2d_7">
      <defs>
       <path d="M 0 0 
L -3.5 0 
" id="m777c0924f1" style="stroke:#000000;stroke-width:0.8;"/>
      </defs>
      <g>
       <use style="stroke:#000000;stroke-width:0.8;" x="57" xlink:href="#m777c0924f1" y="434.045455"/>
      </g>
     </g>
     <g id="text_8">
      <!-- 0.0 -->
      <g transform="translate(34.096875 437.844673)scale(0.1 -0.1)">
       <use xlink:href="#DejaVuSans-30"/>
       <use x="63.623047" xlink:href="#DejaVuSans-2e"/>
       <use x="95.410156" xlink:href="#DejaVuSans-30"/>
      </g>
     </g>
    </g>
    <g id="ytick_2">
     <g id="line2d_8">
      <g>
       <use style="stroke:#000000;stroke-width:0.8;" x="57" xlink:href="#m777c0924f1" y="358.227273"/>
      </g>
     </g>
     <g id="text_9">
      <!-- 0.2 -->
      <g transform="translate(34.096875 362.026491)scale(0.1 -0.1)">
       <use xlink:href="#DejaVuSans-30"/>
       <use x="63.623047" xlink:href="#DejaVuSans-2e"/>
       <use x="95.410156" xlink:href="#DejaVuSans-32"/>
      </g>
     </g>
    </g>
    <g id="ytick_3">
     <g id="line2d_9">
      <g>
       <use style="stroke:#000000;stroke-width:0.8;" x="57" xlink:href="#m777c0924f1" y="282.409091"/>
      </g>
     </g>
     <g id="text_10">
      <!-- 0.4 -->
      <g transform="translate(34.096875 286.20831)scale(0.1 -0.1)">
       <use xlink:href="#DejaVuSans-30"/>
       <use x="63.623047" xlink:href="#DejaVuSans-2e"/>
       <use x="95.410156" xlink:href="#DejaVuSans-34"/>
      </g>
     </g>
    </g>
    <g id="ytick_4">
     <g id="line2d_10">
      <g>
       <use style="stroke:#000000;stroke-width:0.8;" x="57" xlink:href="#m777c0924f1" y="206.590909"/>
      </g>
     </g>
     <g id="text_11">
      <!-- 0.6 -->
      <g transform="translate(34.096875 210.390128)scale(0.1 -0.1)">
       <use xlink:href="#DejaVuSans-30"/>
       <use x="63.623047" xlink:href="#DejaVuSans-2e"/>
       <use x="95.410156" xlink:href="#DejaVuSans-36"/>
      </g>
     </g>
    </g>
    <g id="ytick_5">
     <g id="line2d_11">
      <g>
       <use style="stroke:#000000;stroke-width:0.8;" x="57" xlink:href="#m777c0924f1" y="130.772727"/>
      </g>
     </g>
     <g id="text_12">
      <!-- 0.8 -->
      <g transform="translate(34.096875 134.571946)scale(0.1 -0.1)">
       <use xlink:href="#DejaVuSans-30"/>
       <use x="63.623047" xlink:href="#DejaVuSans-2e"/>
       <use x="95.410156" xlink:href="#DejaVuSans-38"/>
      </g>
     </g>
    </g>
    <g id="ytick_6">
     <g id="line2d_12">
      <g>
       <use style="stroke:#000000;stroke-width:0.8;" x="57" xlink:href="#m777c0924f1" y="54.954545"/>
      </g>
     </g>
     <g id="text_13">
      <!-- 1.0 -->
      <g transform="translate(34.096875 58.753764)scale(0.1 -0.1)">
       <use xlink:href="#DejaVuSans-31"/>
       <use x="63.623047" xlink:href="#DejaVuSans-2e"/>
       <use x="95.410156" xlink:href="#DejaVuSans-30"/>
      </g>
     </g>
    </g>
    <g id="text_14">
     <!-- Ratio of predictions -->
     <g transform="translate(28.017188 293.020312)rotate(-90)scale(0.1 -0.1)">
      <defs>
       <path d="M 2834 3397 
L 2834 2853 
Q 2591 2978 2328 3040 
Q 2066 3103 1784 3103 
Q 1356 3103 1142 2972 
Q 928 2841 928 2578 
Q 928 2378 1081 2264 
Q 1234 2150 1697 2047 
L 1894 2003 
Q 2506 1872 2764 1633 
Q 3022 1394 3022 966 
Q 3022 478 2636 193 
Q 2250 -91 1575 -91 
Q 1294 -91 989 -36 
Q 684 19 347 128 
L 347 722 
Q 666 556 975 473 
Q 1284 391 1588 391 
Q 1994 391 2212 530 
Q 2431 669 2431 922 
Q 2431 1156 2273 1281 
Q 2116 1406 1581 1522 
L 1381 1569 
Q 847 1681 609 1914 
Q 372 2147 372 2553 
Q 372 3047 722 3315 
Q 1072 3584 1716 3584 
Q 2034 3584 2315 3537 
Q 2597 3491 2834 3397 
z
" id="DejaVuSans-73" transform="scale(0.015625)"/>
      </defs>
      <use xlink:href="#DejaVuSans-52"/>
      <use x="67.232422" xlink:href="#DejaVuSans-61"/>
      <use x="128.511719" xlink:href="#DejaVuSans-74"/>
      <use x="167.720703" xlink:href="#DejaVuSans-69"/>
      <use x="195.503906" xlink:href="#DejaVuSans-6f"/>
      <use x="256.685547" xlink:href="#DejaVuSans-20"/>
      <use x="288.472656" xlink:href="#DejaVuSans-6f"/>
      <use x="349.654297" xlink:href="#DejaVuSans-66"/>
      <use x="384.859375" xlink:href="#DejaVuSans-20"/>
      <use x="416.646484" xlink:href="#DejaVuSans-70"/>
      <use x="480.123047" xlink:href="#DejaVuSans-72"/>
      <use x="518.986328" xlink:href="#DejaVuSans-65"/>
      <use x="580.509766" xlink:href="#DejaVuSans-64"/>
      <use x="643.986328" xlink:href="#DejaVuSans-69"/>
      <use x="671.769531" xlink:href="#DejaVuSans-63"/>
      <use x="726.75" xlink:href="#DejaVuSans-74"/>
      <use x="765.958984" xlink:href="#DejaVuSans-69"/>
      <use x="793.742188" xlink:href="#DejaVuSans-6f"/>
      <use x="854.923828" xlink:href="#DejaVuSans-6e"/>
      <use x="918.302734" xlink:href="#DejaVuSans-73"/>
     </g>
    </g>
   </g>
   <g id="line2d_13">
    <path clip-path="url(#p3dd24bd358)" d="M 105.863636 434.045455 
L 115.735078 434.045455 
L 125.60652 434.045455 
L 135.477961 434.045455 
L 145.349403 434.045455 
L 155.220845 434.045455 
L 165.092287 434.045455 
L 174.963728 434.045455 
L 184.83517 434.045455 
L 194.706612 434.045455 
L 204.578053 434.045455 
L 214.449495 434.045455 
L 224.320937 434.045455 
L 234.192378 434.045455 
L 244.06382 434.045455 
L 253.935262 434.045455 
L 263.806703 434.045455 
L 273.678145 434.045455 
L 283.549587 434.045455 
L 293.421028 434.045455 
L 303.29247 434.045455 
L 313.163912 434.045455 
L 323.035354 434.045455 
L 332.906795 434.045455 
L 342.778237 434.045455 
L 352.649679 434.045455 
L 362.52112 434.045455 
L 372.392562 434.045455 
L 382.264004 434.045455 
L 392.135445 434.045455 
L 402.006887 434.045455 
L 411.878329 434.045455 
L 421.74977 434.045455 
L 431.621212 434.045455 
L 441.492654 434.045455 
L 451.364096 434.045455 
L 461.235537 434.045455 
L 471.106979 434.045455 
L 480.978421 434.045455 
L 490.849862 434.045455 
L 500.721304 434.045455 
L 510.592746 433.666364 
L 520.464187 433.666364 
L 530.335629 433.666364 
L 540.207071 432.908182 
L 550.078512 433.287273 
L 559.949954 433.287273 
L 569.821396 433.287273 
L 579.692837 433.666364 
L 589.564279 433.666364 
L 599.435721 433.666364 
L 609.307163 433.666364 
L 619.178604 434.045455 
L 629.050046 434.045455 
L 638.921488 434.045455 
L 648.792929 434.045455 
L 658.664371 434.045455 
L 668.535813 434.045455 
L 678.407254 434.045455 
L 688.278696 434.045455 
L 698.150138 434.045455 
L 708.021579 434.045455 
L 717.893021 434.045455 
L 727.764463 434.045455 
L 737.635904 434.045455 
L 747.507346 434.045455 
L 757.378788 434.045455 
L 767.25023 434.045455 
L 777.121671 434.045455 
L 786.993113 434.045455 
L 796.864555 434.045455 
L 806.735996 434.045455 
L 816.607438 434.045455 
L 826.47888 434.045455 
L 836.350321 434.045455 
L 846.221763 434.045455 
L 856.093205 434.045455 
L 865.964646 434.045455 
L 875.836088 434.045455 
L 885.70753 434.045455 
L 895.578972 434.045455 
L 905.450413 434.045455 
L 915.321855 434.045455 
L 925.193297 434.045455 
L 935.064738 434.045455 
L 944.93618 434.045455 
L 954.807622 434.045455 
L 964.679063 434.045455 
L 974.550505 434.045455 
L 984.421947 434.045455 
L 994.293388 434.045455 
L 1004.16483 434.045455 
L 1014.036272 434.045455 
L 1023.907713 434.045455 
L 1033.779155 434.045455 
L 1043.650597 434.045455 
L 1053.522039 434.045455 
L 1063.39348 434.045455 
L 1073.264922 434.045455 
L 1083.136364 434.045455 
" style="fill:none;stroke:#1f77b4;stroke-linecap:square;stroke-width:1.5;"/>
   </g>
   <g id="line2d_14">
    <path clip-path="url(#p3dd24bd358)" d="M 105.863636 54.954545 
L 115.735078 54.954545 
L 125.60652 107.648182 
L 135.477961 405.613636 
L 145.349403 433.287273 
L 155.220845 433.287273 
L 165.092287 433.287273 
L 174.963728 433.287273 
L 184.83517 432.908182 
L 194.706612 431.770909 
L 204.578053 429.117273 
L 214.449495 429.117273 
L 224.320937 427.221818 
L 234.192378 425.705455 
L 244.06382 412.058182 
L 253.935262 402.201818 
L 263.806703 391.966364 
L 273.678145 379.835455 
L 283.549587 363.534545 
L 293.421028 347.991818 
L 303.29247 326.762727 
L 313.163912 310.461818 
L 323.035354 292.265455 
L 332.906795 266.487273 
L 342.778237 254.356364 
L 352.649679 258.526364 
L 362.52112 261.938182 
L 372.392562 274.448182 
L 382.264004 300.605455 
L 392.135445 313.494545 
L 402.006887 329.037273 
L 411.878329 360.501818 
L 421.74977 363.534545 
L 431.621212 389.691818 
L 441.492654 405.613636 
L 451.364096 407.888182 
L 461.235537 418.502727 
L 471.106979 422.672727 
L 480.978421 426.084545 
L 490.849862 426.463636 
L 500.721304 427.98 
L 510.592746 429.496364 
L 520.464187 430.633636 
L 530.335629 431.770909 
L 540.207071 432.15 
L 550.078512 432.908182 
L 559.949954 432.908182 
L 569.821396 432.908182 
L 579.692837 433.287273 
L 589.564279 433.287273 
L 599.435721 433.666364 
L 609.307163 433.666364 
L 619.178604 434.045455 
L 629.050046 434.045455 
L 638.921488 434.045455 
L 648.792929 434.045455 
L 658.664371 434.045455 
L 668.535813 434.045455 
L 678.407254 434.045455 
L 688.278696 434.045455 
L 698.150138 434.045455 
L 708.021579 434.045455 
L 717.893021 434.045455 
L 727.764463 434.045455 
L 737.635904 434.045455 
L 747.507346 434.045455 
L 757.378788 434.045455 
L 767.25023 434.045455 
L 777.121671 434.045455 
L 786.993113 434.045455 
L 796.864555 434.045455 
L 806.735996 434.045455 
L 816.607438 434.045455 
L 826.47888 434.045455 
L 836.350321 434.045455 
L 846.221763 434.045455 
L 856.093205 434.045455 
L 865.964646 434.045455 
L 875.836088 434.045455 
L 885.70753 434.045455 
L 895.578972 434.045455 
L 905.450413 434.045455 
L 915.321855 434.045455 
L 925.193297 434.045455 
L 935.064738 434.045455 
L 944.93618 434.045455 
L 954.807622 434.045455 
L 964.679063 434.045455 
L 974.550505 434.045455 
L 984.421947 434.045455 
L 994.293388 434.045455 
L 1004.16483 434.045455 
L 1014.036272 434.045455 
L 1023.907713 434.045455 
L 1033.779155 434.045455 
L 1043.650597 434.045455 
L 1053.522039 434.045455 
L 1063.39348 434.045455 
L 1073.264922 434.045455 
L 1083.136364 434.045455 
" style="fill:none;stroke:#ff7f0e;stroke-linecap:square;stroke-width:1.5;"/>
   </g>
   <g id="line2d_15">
    <path clip-path="url(#p3dd24bd358)" d="M 105.863636 434.045455 
L 115.735078 434.045455 
L 125.60652 434.045455 
L 135.477961 433.287273 
L 145.349403 432.529091 
L 155.220845 432.529091 
L 165.092287 432.529091 
L 174.963728 432.15 
L 184.83517 432.15 
L 194.706612 431.770909 
L 204.578053 431.012727 
L 214.449495 431.391818 
L 224.320937 431.391818 
L 234.192378 431.012727 
L 244.06382 431.012727 
L 253.935262 429.875455 
L 263.806703 429.117273 
L 273.678145 427.98 
L 283.549587 428.738182 
L 293.421028 426.463636 
L 303.29247 424.947273 
L 313.163912 424.568182 
L 323.035354 424.947273 
L 332.906795 422.293636 
L 342.778237 422.672727 
L 352.649679 424.568182 
L 362.52112 425.705455 
L 372.392562 428.359091 
L 382.264004 429.875455 
L 392.135445 430.633636 
L 402.006887 432.529091 
L 411.878329 432.908182 
L 421.74977 433.287273 
L 431.621212 433.287273 
L 441.492654 433.287273 
L 451.364096 433.287273 
L 461.235537 434.045455 
L 471.106979 434.045455 
L 480.978421 434.045455 
L 490.849862 434.045455 
L 500.721304 434.045455 
L 510.592746 434.045455 
L 520.464187 434.045455 
L 530.335629 434.045455 
L 540.207071 434.045455 
L 550.078512 434.045455 
L 559.949954 434.045455 
L 569.821396 434.045455 
L 579.692837 434.045455 
L 589.564279 434.045455 
L 599.435721 434.045455 
L 609.307163 434.045455 
L 619.178604 434.045455 
L 629.050046 434.045455 
L 638.921488 434.045455 
L 648.792929 434.045455 
L 658.664371 434.045455 
L 668.535813 434.045455 
L 678.407254 434.045455 
L 688.278696 434.045455 
L 698.150138 434.045455 
L 708.021579 434.045455 
L 717.893021 434.045455 
L 727.764463 434.045455 
L 737.635904 434.045455 
L 747.507346 434.045455 
L 757.378788 434.045455 
L 767.25023 434.045455 
L 777.121671 434.045455 
L 786.993113 434.045455 
L 796.864555 434.045455 
L 806.735996 434.045455 
L 816.607438 434.045455 
L 826.47888 434.045455 
L 836.350321 434.045455 
L 846.221763 434.045455 
L 856.093205 434.045455 
L 865.964646 434.045455 
L 875.836088 434.045455 
L 885.70753 434.045455 
L 895.578972 434.045455 
L 905.450413 434.045455 
L 915.321855 434.045455 
L 925.193297 434.045455 
L 935.064738 434.045455 
L 944.93618 434.045455 
L 954.807622 434.045455 
L 964.679063 434.045455 
L 974.550505 434.045455 
L 984.421947 434.045455 
L 994.293388 434.045455 
L 1004.16483 434.045455 
L 1014.036272 434.045455 
L 1023.907713 434.045455 
L 1033.779155 434.045455 
L 1043.650597 434.045455 
L 1053.522039 434.045455 
L 1063.39348 434.045455 
L 1073.264922 434.045455 
L 1083.136364 434.045455 
" style="fill:none;stroke:#2ca02c;stroke-linecap:square;stroke-width:1.5;"/>
   </g>
   <g id="line2d_16">
    <path clip-path="url(#p3dd24bd358)" d="M 105.863636 434.045455 
L 115.735078 434.045455 
L 125.60652 382.868182 
L 135.477961 102.340909 
L 145.349403 75.804545 
L 155.220845 75.804545 
L 165.092287 75.804545 
L 174.963728 75.046364 
L 184.83517 72.771818 
L 194.706612 73.909091 
L 204.578053 77.7 
L 214.449495 76.941818 
L 224.320937 80.353636 
L 234.192378 81.490909 
L 244.06382 98.929091 
L 253.935262 113.334545 
L 263.806703 126.602727 
L 273.678145 142.903636 
L 283.549587 164.890909 
L 293.421028 185.740909 
L 303.29247 219.100909 
L 313.163912 240.709091 
L 323.035354 272.173636 
L 332.906795 309.324545 
L 342.778237 344.959091 
L 352.649679 365.809091 
L 362.52112 385.142727 
L 372.392562 393.482727 
L 382.264004 411.679091 
L 392.135445 416.607273 
L 402.006887 422.672727 
L 411.878329 428.359091 
L 421.74977 428.738182 
L 431.621212 431.012727 
L 441.492654 431.770909 
L 451.364096 431.770909 
L 461.235537 431.770909 
L 471.106979 431.770909 
L 480.978421 432.15 
L 490.849862 432.529091 
L 500.721304 432.529091 
L 510.592746 433.666364 
L 520.464187 434.045455 
L 530.335629 434.045455 
L 540.207071 434.045455 
L 550.078512 434.045455 
L 559.949954 434.045455 
L 569.821396 434.045455 
L 579.692837 434.045455 
L 589.564279 434.045455 
L 599.435721 434.045455 
L 609.307163 434.045455 
L 619.178604 434.045455 
L 629.050046 434.045455 
L 638.921488 434.045455 
L 648.792929 434.045455 
L 658.664371 434.045455 
L 668.535813 434.045455 
L 678.407254 434.045455 
L 688.278696 434.045455 
L 698.150138 434.045455 
L 708.021579 434.045455 
L 717.893021 434.045455 
L 727.764463 434.045455 
L 737.635904 434.045455 
L 747.507346 434.045455 
L 757.378788 434.045455 
L 767.25023 434.045455 
L 777.121671 434.045455 
L 786.993113 434.045455 
L 796.864555 434.045455 
L 806.735996 434.045455 
L 816.607438 434.045455 
L 826.47888 434.045455 
L 836.350321 434.045455 
L 846.221763 434.045455 
L 856.093205 434.045455 
L 865.964646 434.045455 
L 875.836088 434.045455 
L 885.70753 434.045455 
L 895.578972 434.045455 
L 905.450413 434.045455 
L 915.321855 434.045455 
L 925.193297 434.045455 
L 935.064738 434.045455 
L 944.93618 434.045455 
L 954.807622 434.045455 
L 964.679063 434.045455 
L 974.550505 434.045455 
L 984.421947 434.045455 
L 994.293388 434.045455 
L 1004.16483 434.045455 
L 1014.036272 434.045455 
L 1023.907713 434.045455 
L 1033.779155 434.045455 
L 1043.650597 434.045455 
L 1053.522039 434.045455 
L 1063.39348 434.045455 
L 1073.264922 434.045455 
L 1083.136364 434.045455 
" style="fill:none;stroke:#d62728;stroke-linecap:square;stroke-width:1.5;"/>
   </g>
   <g id="line2d_17">
    <path clip-path="url(#p3dd24bd358)" d="M 105.863636 434.045455 
L 115.735078 434.045455 
L 125.60652 434.045455 
L 135.477961 434.045455 
L 145.349403 434.045455 
L 155.220845 434.045455 
L 165.092287 434.045455 
L 174.963728 434.045455 
L 184.83517 434.045455 
L 194.706612 434.045455 
L 204.578053 434.045455 
L 214.449495 434.045455 
L 224.320937 434.045455 
L 234.192378 434.045455 
L 244.06382 434.045455 
L 253.935262 434.045455 
L 263.806703 434.045455 
L 273.678145 434.045455 
L 283.549587 433.287273 
L 293.421028 432.908182 
L 303.29247 430.254545 
L 313.163912 427.221818 
L 323.035354 420.019091 
L 332.906795 417.365455 
L 342.778237 401.064545 
L 352.649679 375.665455 
L 362.52112 358.227273 
L 372.392562 340.030909 
L 382.264004 301.363636 
L 392.135445 285.062727 
L 402.006887 267.245455 
L 411.878329 235.401818 
L 421.74977 233.506364 
L 431.621212 222.133636 
L 441.492654 224.787273 
L 451.364096 233.506364 
L 461.235537 276.343636 
L 471.106979 289.611818 
L 480.978421 333.965455 
L 490.849862 349.129091 
L 500.721304 377.560909 
L 510.592746 399.169091 
L 520.464187 407.888182 
L 530.335629 420.019091 
L 540.207071 423.81 
L 550.078512 428.738182 
L 559.949954 431.770909 
L 569.821396 432.15 
L 579.692837 432.529091 
L 589.564279 432.529091 
L 599.435721 433.666364 
L 609.307163 433.666364 
L 619.178604 433.666364 
L 629.050046 433.666364 
L 638.921488 433.666364 
L 648.792929 434.045455 
L 658.664371 434.045455 
L 668.535813 434.045455 
L 678.407254 434.045455 
L 688.278696 434.045455 
L 698.150138 434.045455 
L 708.021579 434.045455 
L 717.893021 434.045455 
L 727.764463 434.045455 
L 737.635904 434.045455 
L 747.507346 434.045455 
L 757.378788 434.045455 
L 767.25023 434.045455 
L 777.121671 434.045455 
L 786.993113 434.045455 
L 796.864555 434.045455 
L 806.735996 434.045455 
L 816.607438 434.045455 
L 826.47888 434.045455 
L 836.350321 434.045455 
L 846.221763 434.045455 
L 856.093205 434.045455 
L 865.964646 434.045455 
L 875.836088 434.045455 
L 885.70753 434.045455 
L 895.578972 434.045455 
L 905.450413 434.045455 
L 915.321855 434.045455 
L 925.193297 434.045455 
L 935.064738 434.045455 
L 944.93618 434.045455 
L 954.807622 434.045455 
L 964.679063 434.045455 
L 974.550505 434.045455 
L 984.421947 434.045455 
L 994.293388 434.045455 
L 1004.16483 434.045455 
L 1014.036272 434.045455 
L 1023.907713 434.045455 
L 1033.779155 434.045455 
L 1043.650597 434.045455 
L 1053.522039 434.045455 
L 1063.39348 434.045455 
L 1073.264922 434.045455 
L 1083.136364 434.045455 
" style="fill:none;stroke:#9467bd;stroke-linecap:square;stroke-width:1.5;"/>
   </g>
   <g id="line2d_18">
    <path clip-path="url(#p3dd24bd358)" d="M 105.863636 434.045455 
L 115.735078 434.045455 
L 125.60652 432.529091 
L 135.477961 417.365455 
L 145.349403 416.986364 
L 155.220845 416.986364 
L 165.092287 416.986364 
L 174.963728 417.744545 
L 184.83517 420.398182 
L 194.706612 420.777273 
L 204.578053 420.398182 
L 214.449495 420.777273 
L 224.320937 419.260909 
L 234.192378 419.64 
L 244.06382 416.607273 
L 253.935262 413.953636 
L 263.806703 412.816364 
L 273.678145 410.541818 
L 283.549587 405.234545 
L 293.421028 403.339091 
L 303.29247 397.273636 
L 313.163912 398.031818 
L 323.035354 398.031818 
L 332.906795 398.410909 
L 342.778237 401.822727 
L 352.649679 406.750909 
L 362.52112 406.371818 
L 372.392562 408.646364 
L 382.264004 410.162727 
L 392.135445 410.162727 
L 402.006887 409.783636 
L 411.878329 409.025455 
L 421.74977 408.646364 
L 431.621212 405.234545 
L 441.492654 404.476364 
L 451.364096 405.234545 
L 461.235537 406.750909 
L 471.106979 409.783636 
L 480.978421 415.090909 
L 490.849862 416.228182 
L 500.721304 420.398182 
L 510.592746 425.326364 
L 520.464187 425.705455 
L 530.335629 429.117273 
L 540.207071 429.875455 
L 550.078512 431.012727 
L 559.949954 432.15 
L 569.821396 432.15 
L 579.692837 432.908182 
L 589.564279 432.908182 
L 599.435721 433.666364 
L 609.307163 433.666364 
L 619.178604 433.666364 
L 629.050046 433.666364 
L 638.921488 434.045455 
L 648.792929 434.045455 
L 658.664371 434.045455 
L 668.535813 434.045455 
L 678.407254 434.045455 
L 688.278696 434.045455 
L 698.150138 434.045455 
L 708.021579 434.045455 
L 717.893021 434.045455 
L 727.764463 434.045455 
L 737.635904 434.045455 
L 747.507346 434.045455 
L 757.378788 434.045455 
L 767.25023 434.045455 
L 777.121671 434.045455 
L 786.993113 434.045455 
L 796.864555 434.045455 
L 806.735996 434.045455 
L 816.607438 434.045455 
L 826.47888 434.045455 
L 836.350321 434.045455 
L 846.221763 434.045455 
L 856.093205 434.045455 
L 865.964646 434.045455 
L 875.836088 434.045455 
L 885.70753 434.045455 
L 895.578972 434.045455 
L 905.450413 434.045455 
L 915.321855 434.045455 
L 925.193297 434.045455 
L 935.064738 434.045455 
L 944.93618 434.045455 
L 954.807622 434.045455 
L 964.679063 434.045455 
L 974.550505 434.045455 
L 984.421947 434.045455 
L 994.293388 434.045455 
L 1004.16483 434.045455 
L 1014.036272 434.045455 
L 1023.907713 434.045455 
L 1033.779155 434.045455 
L 1043.650597 434.045455 
L 1053.522039 434.045455 
L 1063.39348 434.045455 
L 1073.264922 434.045455 
L 1083.136364 434.045455 
" style="fill:none;stroke:#8c564b;stroke-linecap:square;stroke-width:1.5;"/>
   </g>
   <g id="line2d_19">
    <path clip-path="url(#p3dd24bd358)" d="M 105.863636 434.045455 
L 115.735078 434.045455 
L 125.60652 434.045455 
L 135.477961 433.287273 
L 145.349403 433.287273 
L 155.220845 433.287273 
L 165.092287 433.287273 
L 174.963728 433.287273 
L 184.83517 433.287273 
L 194.706612 433.287273 
L 204.578053 433.287273 
L 214.449495 432.908182 
L 224.320937 432.908182 
L 234.192378 433.287273 
L 244.06382 433.287273 
L 253.935262 433.287273 
L 263.806703 432.529091 
L 273.678145 432.15 
L 283.549587 432.15 
L 293.421028 432.529091 
L 303.29247 430.254545 
L 313.163912 427.98 
L 323.035354 423.051818 
L 332.906795 418.502727 
L 342.778237 409.783636 
L 352.649679 403.339091 
L 362.52112 398.031818 
L 372.392562 390.45 
L 382.264004 380.593636 
L 392.135445 376.044545 
L 402.006887 371.116364 
L 411.878329 364.292727 
L 421.74977 363.534545 
L 431.621212 349.129091 
L 441.492654 329.416364 
L 451.364096 316.906364 
L 461.235537 260.421818 
L 471.106979 239.950909 
L 480.978421 185.740909 
L 490.849862 168.681818 
L 500.721304 134.563636 
L 510.592746 104.994545 
L 520.464187 94.38 
L 530.335629 77.320909 
L 540.207071 72.392727 
L 550.078512 65.19 
L 559.949954 61.02 
L 569.821396 60.640909 
L 579.692837 58.745455 
L 589.564279 58.745455 
L 599.435721 56.470909 
L 609.307163 56.470909 
L 619.178604 55.712727 
L 629.050046 55.712727 
L 638.921488 55.333636 
L 648.792929 54.954545 
L 658.664371 54.954545 
L 668.535813 54.954545 
L 678.407254 54.954545 
L 688.278696 54.954545 
L 698.150138 54.954545 
L 708.021579 54.954545 
L 717.893021 54.954545 
L 727.764463 54.954545 
L 737.635904 54.954545 
L 747.507346 54.954545 
L 757.378788 54.954545 
L 767.25023 54.954545 
L 777.121671 54.954545 
L 786.993113 54.954545 
L 796.864555 54.954545 
L 806.735996 54.954545 
L 816.607438 54.954545 
L 826.47888 54.954545 
L 836.350321 54.954545 
L 846.221763 54.954545 
L 856.093205 54.954545 
L 865.964646 54.954545 
L 875.836088 54.954545 
L 885.70753 54.954545 
L 895.578972 54.954545 
L 905.450413 54.954545 
L 915.321855 54.954545 
L 925.193297 54.954545 
L 935.064738 54.954545 
L 944.93618 54.954545 
L 954.807622 54.954545 
L 964.679063 54.954545 
L 974.550505 54.954545 
L 984.421947 54.954545 
L 994.293388 54.954545 
L 1004.16483 54.954545 
L 1014.036272 54.954545 
L 1023.907713 54.954545 
L 1033.779155 54.954545 
L 1043.650597 54.954545 
L 1053.522039 54.954545 
L 1063.39348 54.954545 
L 1073.264922 54.954545 
L 1083.136364 54.954545 
" style="fill:none;stroke:#e377c2;stroke-linecap:square;stroke-width:1.5;"/>
   </g>
   <g id="line2d_20">
    <path clip-path="url(#p3dd24bd358)" d="M 105.863636 434.045455 
L 115.735078 434.045455 
L 125.60652 434.045455 
L 135.477961 433.666364 
L 145.349403 433.666364 
L 155.220845 433.666364 
L 165.092287 433.666364 
L 174.963728 433.666364 
L 184.83517 433.666364 
L 194.706612 433.666364 
L 204.578053 433.666364 
L 214.449495 434.045455 
L 224.320937 434.045455 
L 234.192378 434.045455 
L 244.06382 433.287273 
L 253.935262 432.529091 
L 263.806703 432.15 
L 273.678145 431.770909 
L 283.549587 431.391818 
L 293.421028 430.254545 
L 303.29247 430.633636 
L 313.163912 430.254545 
L 323.035354 428.738182 
L 332.906795 427.221818 
L 342.778237 424.947273 
L 352.649679 424.947273 
L 362.52112 424.568182 
L 372.392562 424.947273 
L 382.264004 426.084545 
L 392.135445 428.738182 
L 402.006887 428.359091 
L 411.878329 431.391818 
L 421.74977 430.633636 
L 431.621212 431.391818 
L 441.492654 432.15 
L 451.364096 432.908182 
L 461.235537 433.287273 
L 471.106979 433.287273 
L 480.978421 433.666364 
L 490.849862 433.666364 
L 500.721304 434.045455 
L 510.592746 434.045455 
L 520.464187 434.045455 
L 530.335629 434.045455 
L 540.207071 434.045455 
L 550.078512 434.045455 
L 559.949954 434.045455 
L 569.821396 434.045455 
L 579.692837 434.045455 
L 589.564279 434.045455 
L 599.435721 434.045455 
L 609.307163 434.045455 
L 619.178604 434.045455 
L 629.050046 434.045455 
L 638.921488 434.045455 
L 648.792929 434.045455 
L 658.664371 434.045455 
L 668.535813 434.045455 
L 678.407254 434.045455 
L 688.278696 434.045455 
L 698.150138 434.045455 
L 708.021579 434.045455 
L 717.893021 434.045455 
L 727.764463 434.045455 
L 737.635904 434.045455 
L 747.507346 434.045455 
L 757.378788 434.045455 
L 767.25023 434.045455 
L 777.121671 434.045455 
L 786.993113 434.045455 
L 796.864555 434.045455 
L 806.735996 434.045455 
L 816.607438 434.045455 
L 826.47888 434.045455 
L 836.350321 434.045455 
L 846.221763 434.045455 
L 856.093205 434.045455 
L 865.964646 434.045455 
L 875.836088 434.045455 
L 885.70753 434.045455 
L 895.578972 434.045455 
L 905.450413 434.045455 
L 915.321855 434.045455 
L 925.193297 434.045455 
L 935.064738 434.045455 
L 944.93618 434.045455 
L 954.807622 434.045455 
L 964.679063 434.045455 
L 974.550505 434.045455 
L 984.421947 434.045455 
L 994.293388 434.045455 
L 1004.16483 434.045455 
L 1014.036272 434.045455 
L 1023.907713 434.045455 
L 1033.779155 434.045455 
L 1043.650597 434.045455 
L 1053.522039 434.045455 
L 1063.39348 434.045455 
L 1073.264922 434.045455 
L 1083.136364 434.045455 
" style="fill:none;stroke:#7f7f7f;stroke-linecap:square;stroke-width:1.5;"/>
   </g>
   <g id="line2d_21">
    <path clip-path="url(#p3dd24bd358)" d="M 105.863636 434.045455 
L 115.735078 434.045455 
L 125.60652 434.045455 
L 135.477961 434.045455 
L 145.349403 434.045455 
L 155.220845 434.045455 
L 165.092287 434.045455 
L 174.963728 434.045455 
L 184.83517 434.045455 
L 194.706612 434.045455 
L 204.578053 434.045455 
L 214.449495 434.045455 
L 224.320937 434.045455 
L 234.192378 434.045455 
L 244.06382 434.045455 
L 253.935262 434.045455 
L 263.806703 434.045455 
L 273.678145 434.045455 
L 283.549587 434.045455 
L 293.421028 434.045455 
L 303.29247 434.045455 
L 313.163912 434.045455 
L 323.035354 434.045455 
L 332.906795 434.045455 
L 342.778237 434.045455 
L 352.649679 434.045455 
L 362.52112 434.045455 
L 372.392562 434.045455 
L 382.264004 434.045455 
L 392.135445 434.045455 
L 402.006887 434.045455 
L 411.878329 434.045455 
L 421.74977 434.045455 
L 431.621212 434.045455 
L 441.492654 434.045455 
L 451.364096 434.045455 
L 461.235537 434.045455 
L 471.106979 434.045455 
L 480.978421 434.045455 
L 490.849862 434.045455 
L 500.721304 434.045455 
L 510.592746 434.045455 
L 520.464187 434.045455 
L 530.335629 434.045455 
L 540.207071 434.045455 
L 550.078512 434.045455 
L 559.949954 434.045455 
L 569.821396 434.045455 
L 579.692837 434.045455 
L 589.564279 434.045455 
L 599.435721 434.045455 
L 609.307163 434.045455 
L 619.178604 434.045455 
L 629.050046 434.045455 
L 638.921488 434.045455 
L 648.792929 434.045455 
L 658.664371 434.045455 
L 668.535813 434.045455 
L 678.407254 434.045455 
L 688.278696 434.045455 
L 698.150138 434.045455 
L 708.021579 434.045455 
L 717.893021 434.045455 
L 727.764463 434.045455 
L 737.635904 434.045455 
L 747.507346 434.045455 
L 757.378788 434.045455 
L 767.25023 434.045455 
L 777.121671 434.045455 
L 786.993113 434.045455 
L 796.864555 434.045455 
L 806.735996 434.045455 
L 816.607438 434.045455 
L 826.47888 434.045455 
L 836.350321 434.045455 
L 846.221763 434.045455 
L 856.093205 434.045455 
L 865.964646 434.045455 
L 875.836088 434.045455 
L 885.70753 434.045455 
L 895.578972 434.045455 
L 905.450413 434.045455 
L 915.321855 434.045455 
L 925.193297 434.045455 
L 935.064738 434.045455 
L 944.93618 434.045455 
L 954.807622 434.045455 
L 964.679063 434.045455 
L 974.550505 434.045455 
L 984.421947 434.045455 
L 994.293388 434.045455 
L 1004.16483 434.045455 
L 1014.036272 434.045455 
L 1023.907713 434.045455 
L 1033.779155 434.045455 
L 1043.650597 434.045455 
L 1053.522039 434.045455 
L 1063.39348 434.045455 
L 1073.264922 434.045455 
L 1083.136364 434.045455 
" style="fill:none;stroke:#bcbd22;stroke-linecap:square;stroke-width:1.5;"/>
   </g>
   <g id="line2d_22">
    <path clip-path="url(#p3dd24bd358)" d="M 105.863636 434.045455 
L 115.735078 434.045455 
L 125.60652 434.045455 
L 135.477961 433.666364 
L 145.349403 433.666364 
L 155.220845 433.666364 
L 165.092287 433.666364 
L 174.963728 434.045455 
L 184.83517 434.045455 
L 194.706612 434.045455 
L 204.578053 434.045455 
L 214.449495 434.045455 
L 224.320937 434.045455 
L 234.192378 434.045455 
L 244.06382 434.045455 
L 253.935262 434.045455 
L 263.806703 434.045455 
L 273.678145 434.045455 
L 283.549587 434.045455 
L 293.421028 434.045455 
L 303.29247 434.045455 
L 313.163912 434.045455 
L 323.035354 434.045455 
L 332.906795 433.666364 
L 342.778237 433.666364 
L 352.649679 433.666364 
L 362.52112 433.287273 
L 372.392562 432.908182 
L 382.264004 432.908182 
L 392.135445 432.529091 
L 402.006887 432.529091 
L 411.878329 431.391818 
L 421.74977 431.391818 
L 431.621212 431.391818 
L 441.492654 431.770909 
L 451.364096 431.770909 
L 461.235537 432.15 
L 471.106979 432.15 
L 480.978421 432.529091 
L 490.849862 432.529091 
L 500.721304 432.15 
L 510.592746 432.908182 
L 520.464187 432.908182 
L 530.335629 433.287273 
L 540.207071 434.045455 
L 550.078512 434.045455 
L 559.949954 434.045455 
L 569.821396 434.045455 
L 579.692837 434.045455 
L 589.564279 434.045455 
L 599.435721 434.045455 
L 609.307163 434.045455 
L 619.178604 434.045455 
L 629.050046 434.045455 
L 638.921488 434.045455 
L 648.792929 434.045455 
L 658.664371 434.045455 
L 668.535813 434.045455 
L 678.407254 434.045455 
L 688.278696 434.045455 
L 698.150138 434.045455 
L 708.021579 434.045455 
L 717.893021 434.045455 
L 727.764463 434.045455 
L 737.635904 434.045455 
L 747.507346 434.045455 
L 757.378788 434.045455 
L 767.25023 434.045455 
L 777.121671 434.045455 
L 786.993113 434.045455 
L 796.864555 434.045455 
L 806.735996 434.045455 
L 816.607438 434.045455 
L 826.47888 434.045455 
L 836.350321 434.045455 
L 846.221763 434.045455 
L 856.093205 434.045455 
L 865.964646 434.045455 
L 875.836088 434.045455 
L 885.70753 434.045455 
L 895.578972 434.045455 
L 905.450413 434.045455 
L 915.321855 434.045455 
L 925.193297 434.045455 
L 935.064738 434.045455 
L 944.93618 434.045455 
L 954.807622 434.045455 
L 964.679063 434.045455 
L 974.550505 434.045455 
L 984.421947 434.045455 
L 994.293388 434.045455 
L 1004.16483 434.045455 
L 1014.036272 434.045455 
L 1023.907713 434.045455 
L 1033.779155 434.045455 
L 1043.650597 434.045455 
L 1053.522039 434.045455 
L 1063.39348 434.045455 
L 1073.264922 434.045455 
L 1083.136364 434.045455 
" style="fill:none;stroke:#17becf;stroke-linecap:square;stroke-width:1.5;"/>
   </g>
   <g id="patch_3">
    <path d="M 57 453 
L 57 36 
" style="fill:none;stroke:#000000;stroke-linecap:square;stroke-linejoin:miter;stroke-width:0.8;"/>
   </g>
   <g id="patch_4">
    <path d="M 1132 453 
L 1132 36 
" style="fill:none;stroke:#000000;stroke-linecap:square;stroke-linejoin:miter;stroke-width:0.8;"/>
   </g>
   <g id="patch_5">
    <path d="M 57 453 
L 1132 453 
" style="fill:none;stroke:#000000;stroke-linecap:square;stroke-linejoin:miter;stroke-width:0.8;"/>
   </g>
   <g id="patch_6">
    <path d="M 57 36 
L 1132 36 
" style="fill:none;stroke:#000000;stroke-linecap:square;stroke-linejoin:miter;stroke-width:0.8;"/>
   </g>
   <g id="text_15">
    <!-- Recognition for the images of digit 6 -->
    <g transform="translate(484.91 30)scale(0.12 -0.12)">
     <defs>
      <path d="M 3513 2113 
L 3513 0 
L 2938 0 
L 2938 2094 
Q 2938 2591 2744 2837 
Q 2550 3084 2163 3084 
Q 1697 3084 1428 2787 
Q 1159 2491 1159 1978 
L 1159 0 
L 581 0 
L 581 4863 
L 1159 4863 
L 1159 2956 
Q 1366 3272 1645 3428 
Q 1925 3584 2291 3584 
Q 2894 3584 3203 3211 
Q 3513 2838 3513 2113 
z
" id="DejaVuSans-68" transform="scale(0.015625)"/>
     </defs>
     <use xlink:href="#DejaVuSans-52"/>
     <use x="64.982422" xlink:href="#DejaVuSans-65"/>
     <use x="126.505859" xlink:href="#DejaVuSans-63"/>
     <use x="181.486328" xlink:href="#DejaVuSans-6f"/>
     <use x="242.667969" xlink:href="#DejaVuSans-67"/>
     <use x="306.144531" xlink:href="#DejaVuSans-6e"/>
     <use x="369.523438" xlink:href="#DejaVuSans-69"/>
     <use x="397.306641" xlink:href="#DejaVuSans-74"/>
     <use x="436.515625" xlink:href="#DejaVuSans-69"/>
     <use x="464.298828" xlink:href="#DejaVuSans-6f"/>
     <use x="525.480469" xlink:href="#DejaVuSans-6e"/>
     <use x="588.859375" xlink:href="#DejaVuSans-20"/>
     <use x="620.646484" xlink:href="#DejaVuSans-66"/>
     <use x="655.851562" xlink:href="#DejaVuSans-6f"/>
     <use x="717.033203" xlink:href="#DejaVuSans-72"/>
     <use x="758.146484" xlink:href="#DejaVuSans-20"/>
     <use x="789.933594" xlink:href="#DejaVuSans-74"/>
     <use x="829.142578" xlink:href="#DejaVuSans-68"/>
     <use x="892.521484" xlink:href="#DejaVuSans-65"/>
     <use x="954.044922" xlink:href="#DejaVuSans-20"/>
     <use x="985.832031" xlink:href="#DejaVuSans-69"/>
     <use x="1013.615234" xlink:href="#DejaVuSans-6d"/>
     <use x="1111.027344" xlink:href="#DejaVuSans-61"/>
     <use x="1172.306641" xlink:href="#DejaVuSans-67"/>
     <use x="1235.783203" xlink:href="#DejaVuSans-65"/>
     <use x="1297.306641" xlink:href="#DejaVuSans-73"/>
     <use x="1349.40625" xlink:href="#DejaVuSans-20"/>
     <use x="1381.193359" xlink:href="#DejaVuSans-6f"/>
     <use x="1442.375" xlink:href="#DejaVuSans-66"/>
     <use x="1477.580078" xlink:href="#DejaVuSans-20"/>
     <use x="1509.367188" xlink:href="#DejaVuSans-64"/>
     <use x="1572.84375" xlink:href="#DejaVuSans-69"/>
     <use x="1600.626953" xlink:href="#DejaVuSans-67"/>
     <use x="1664.103516" xlink:href="#DejaVuSans-69"/>
     <use x="1691.886719" xlink:href="#DejaVuSans-74"/>
     <use x="1731.095703" xlink:href="#DejaVuSans-20"/>
     <use x="1762.882812" xlink:href="#DejaVuSans-36"/>
    </g>
   </g>
   <g id="legend_1">
    <g id="patch_7">
     <path d="M 1086.6375 190.78125 
L 1125 190.78125 
Q 1127 190.78125 1127 188.78125 
L 1127 43 
Q 1127 41 1125 41 
L 1086.6375 41 
Q 1084.6375 41 1084.6375 43 
L 1084.6375 188.78125 
Q 1084.6375 190.78125 1086.6375 190.78125 
z
" style="fill:#ffffff;opacity:0.8;stroke:#cccccc;stroke-linejoin:miter;"/>
    </g>
    <g id="line2d_23">
     <path d="M 1088.6375 49.098437 
L 1108.6375 49.098437 
" style="fill:none;stroke:#1f77b4;stroke-linecap:square;stroke-width:1.5;"/>
    </g>
    <g id="line2d_24"/>
    <g id="text_16">
     <!-- 0 -->
     <g transform="translate(1116.6375 52.598437)scale(0.1 -0.1)">
      <use xlink:href="#DejaVuSans-30"/>
     </g>
    </g>
    <g id="line2d_25">
     <path d="M 1088.6375 63.776562 
L 1108.6375 63.776562 
" style="fill:none;stroke:#ff7f0e;stroke-linecap:square;stroke-width:1.5;"/>
    </g>
    <g id="line2d_26"/>
    <g id="text_17">
     <!-- 1 -->
     <g transform="translate(1116.6375 67.276562)scale(0.1 -0.1)">
      <use xlink:href="#DejaVuSans-31"/>
     </g>
    </g>
    <g id="line2d_27">
     <path d="M 1088.6375 78.454687 
L 1108.6375 78.454687 
" style="fill:none;stroke:#2ca02c;stroke-linecap:square;stroke-width:1.5;"/>
    </g>
    <g id="line2d_28"/>
    <g id="text_18">
     <!-- 2 -->
     <g transform="translate(1116.6375 81.954687)scale(0.1 -0.1)">
      <use xlink:href="#DejaVuSans-32"/>
     </g>
    </g>
    <g id="line2d_29">
     <path d="M 1088.6375 93.132812 
L 1108.6375 93.132812 
" style="fill:none;stroke:#d62728;stroke-linecap:square;stroke-width:1.5;"/>
    </g>
    <g id="line2d_30"/>
    <g id="text_19">
     <!-- 3 -->
     <g transform="translate(1116.6375 96.632812)scale(0.1 -0.1)">
      <defs>
       <path d="M 2597 2516 
Q 3050 2419 3304 2112 
Q 3559 1806 3559 1356 
Q 3559 666 3084 287 
Q 2609 -91 1734 -91 
Q 1441 -91 1130 -33 
Q 819 25 488 141 
L 488 750 
Q 750 597 1062 519 
Q 1375 441 1716 441 
Q 2309 441 2620 675 
Q 2931 909 2931 1356 
Q 2931 1769 2642 2001 
Q 2353 2234 1838 2234 
L 1294 2234 
L 1294 2753 
L 1863 2753 
Q 2328 2753 2575 2939 
Q 2822 3125 2822 3475 
Q 2822 3834 2567 4026 
Q 2313 4219 1838 4219 
Q 1578 4219 1281 4162 
Q 984 4106 628 3988 
L 628 4550 
Q 988 4650 1302 4700 
Q 1616 4750 1894 4750 
Q 2613 4750 3031 4423 
Q 3450 4097 3450 3541 
Q 3450 3153 3228 2886 
Q 3006 2619 2597 2516 
z
" id="DejaVuSans-33" transform="scale(0.015625)"/>
      </defs>
      <use xlink:href="#DejaVuSans-33"/>
     </g>
    </g>
    <g id="line2d_31">
     <path d="M 1088.6375 107.810937 
L 1108.6375 107.810937 
" style="fill:none;stroke:#9467bd;stroke-linecap:square;stroke-width:1.5;"/>
    </g>
    <g id="line2d_32"/>
    <g id="text_20">
     <!-- 4 -->
     <g transform="translate(1116.6375 111.310937)scale(0.1 -0.1)">
      <use xlink:href="#DejaVuSans-34"/>
     </g>
    </g>
    <g id="line2d_33">
     <path d="M 1088.6375 122.489062 
L 1108.6375 122.489062 
" style="fill:none;stroke:#8c564b;stroke-linecap:square;stroke-width:1.5;"/>
    </g>
    <g id="line2d_34"/>
    <g id="text_21">
     <!-- 5 -->
     <g transform="translate(1116.6375 125.989062)scale(0.1 -0.1)">
      <defs>
       <path d="M 691 4666 
L 3169 4666 
L 3169 4134 
L 1269 4134 
L 1269 2991 
Q 1406 3038 1543 3061 
Q 1681 3084 1819 3084 
Q 2600 3084 3056 2656 
Q 3513 2228 3513 1497 
Q 3513 744 3044 326 
Q 2575 -91 1722 -91 
Q 1428 -91 1123 -41 
Q 819 9 494 109 
L 494 744 
Q 775 591 1075 516 
Q 1375 441 1709 441 
Q 2250 441 2565 725 
Q 2881 1009 2881 1497 
Q 2881 1984 2565 2268 
Q 2250 2553 1709 2553 
Q 1456 2553 1204 2497 
Q 953 2441 691 2322 
L 691 4666 
z
" id="DejaVuSans-35" transform="scale(0.015625)"/>
      </defs>
      <use xlink:href="#DejaVuSans-35"/>
     </g>
    </g>
    <g id="line2d_35">
     <path d="M 1088.6375 137.167187 
L 1108.6375 137.167187 
" style="fill:none;stroke:#e377c2;stroke-linecap:square;stroke-width:1.5;"/>
    </g>
    <g id="line2d_36"/>
    <g id="text_22">
     <!-- 6 -->
     <g transform="translate(1116.6375 140.667187)scale(0.1 -0.1)">
      <use xlink:href="#DejaVuSans-36"/>
     </g>
    </g>
    <g id="line2d_37">
     <path d="M 1088.6375 151.845312 
L 1108.6375 151.845312 
" style="fill:none;stroke:#7f7f7f;stroke-linecap:square;stroke-width:1.5;"/>
    </g>
    <g id="line2d_38"/>
    <g id="text_23">
     <!-- 7 -->
     <g transform="translate(1116.6375 155.345312)scale(0.1 -0.1)">
      <defs>
       <path d="M 525 4666 
L 3525 4666 
L 3525 4397 
L 1831 0 
L 1172 0 
L 2766 4134 
L 525 4134 
L 525 4666 
z
" id="DejaVuSans-37" transform="scale(0.015625)"/>
      </defs>
      <use xlink:href="#DejaVuSans-37"/>
     </g>
    </g>
    <g id="line2d_39">
     <path d="M 1088.6375 166.523437 
L 1108.6375 166.523437 
" style="fill:none;stroke:#bcbd22;stroke-linecap:square;stroke-width:1.5;"/>
    </g>
    <g id="line2d_40"/>
    <g id="text_24">
     <!-- 8 -->
     <g transform="translate(1116.6375 170.023437)scale(0.1 -0.1)">
      <use xlink:href="#DejaVuSans-38"/>
     </g>
    </g>
    <g id="line2d_41">
     <path d="M 1088.6375 181.201562 
L 1108.6375 181.201562 
" style="fill:none;stroke:#17becf;stroke-linecap:square;stroke-width:1.5;"/>
    </g>
    <g id="line2d_42"/>
    <g id="text_25">
     <!-- 9 -->
     <g transform="translate(1116.6375 184.701562)scale(0.1 -0.1)">
      <defs>
       <path d="M 703 97 
L 703 672 
Q 941 559 1184 500 
Q 1428 441 1663 441 
Q 2288 441 2617 861 
Q 2947 1281 2994 2138 
Q 2813 1869 2534 1725 
Q 2256 1581 1919 1581 
Q 1219 1581 811 2004 
Q 403 2428 403 3163 
Q 403 3881 828 4315 
Q 1253 4750 1959 4750 
Q 2769 4750 3195 4129 
Q 3622 3509 3622 2328 
Q 3622 1225 3098 567 
Q 2575 -91 1691 -91 
Q 1453 -91 1209 -44 
Q 966 3 703 97 
z
M 1959 2075 
Q 2384 2075 2632 2365 
Q 2881 2656 2881 3163 
Q 2881 3666 2632 3958 
Q 2384 4250 1959 4250 
Q 1534 4250 1286 3958 
Q 1038 3666 1038 3163 
Q 1038 2656 1286 2365 
Q 1534 2075 1959 2075 
z
" id="DejaVuSans-39" transform="scale(0.015625)"/>
      </defs>
      <use xlink:href="#DejaVuSans-39"/>
     </g>
    </g>
   </g>
  </g>
 </g>
 <defs>
  <clipPath id="p3dd24bd358">
   <rect height="417" width="1075" x="57" y="36"/>
  </clipPath>
 </defs>
</svg>
